<?xml version="1.0" encoding="UTF-8"?><svg xmlns="http://www.w3.org/2000/svg" xmlns:xlink="http://www.w3.org/1999/xlink" stroke-dasharray="none" shape-rendering="auto" font-family="'Dialog'" width="540" text-rendering="auto" fill-opacity="1" contentScriptType="text/ecmascript" color-interpolation="auto" color-rendering="auto" preserveAspectRatio="xMidYMid meet" font-size="12px" viewBox="0 0 540 221" fill="black" stroke="black" image-rendering="auto" stroke-miterlimit="10" zoomAndPan="magnify" version="1.0" stroke-linecap="square" stroke-linejoin="miter" contentStyleType="text/css" font-style="normal" height="221" stroke-width="1" stroke-dashoffset="0" font-weight="normal" stroke-opacity="1">
    <!--Generated by the Batik Graphics2D SVG Generator-->
    <defs id="genericDefs"/>
    <g>
        <defs id="defs1">
            <linearGradient x1="210" x2="291" y1="50" gradientUnits="userSpaceOnUse" y2="50" xlink:type="simple" xlink:actuate="onLoad" id="linearGradient1" xlink:show="other" spreadMethod="pad">
                <stop stop-opacity="1" stop-color="white" offset="0%"/>
                <stop stop-opacity="1" stop-color="rgb(211,211,211)" offset="100%"/>
            </linearGradient>
            <linearGradient x1="10" x2="10" y1="50" gradientUnits="userSpaceOnUse" y2="91" xlink:type="simple" xlink:actuate="onLoad" id="linearGradient2" xlink:show="other" spreadMethod="pad">
                <stop stop-opacity="1" stop-color="white" offset="0%"/>
                <stop stop-opacity="1" stop-color="rgb(175,215,255)" offset="100%"/>
            </linearGradient>
            <linearGradient x1="210" x2="210" y1="170" gradientUnits="userSpaceOnUse" y2="211" xlink:type="simple" xlink:actuate="onLoad" id="linearGradient3" xlink:show="other" spreadMethod="pad">
                <stop stop-opacity="1" stop-color="white" offset="0%"/>
                <stop stop-opacity="1" stop-color="rgb(255,224,192)" offset="100%"/>
            </linearGradient>
            <linearGradient x1="330" x2="330" y1="170" gradientUnits="userSpaceOnUse" y2="211" xlink:type="simple" xlink:actuate="onLoad" id="linearGradient4" xlink:show="other" spreadMethod="pad">
                <stop stop-opacity="1" stop-color="white" offset="0%"/>
                <stop stop-opacity="1" stop-color="rgb(255,229,153)" offset="100%"/>
            </linearGradient>
            <linearGradient x1="90" x2="90" y1="170" gradientUnits="userSpaceOnUse" y2="211" xlink:type="simple" xlink:actuate="onLoad" id="linearGradient5" xlink:show="other" spreadMethod="pad">
                <stop stop-opacity="1" stop-color="white" offset="0%"/>
                <stop stop-opacity="1" stop-color="rgb(230,227,229)" offset="100%"/>
            </linearGradient>
            <linearGradient x1="430" x2="430" y1="10" gradientUnits="userSpaceOnUse" y2="51" xlink:type="simple" xlink:actuate="onLoad" id="linearGradient6" xlink:show="other" spreadMethod="pad">
                <stop stop-opacity="1" stop-color="white" offset="0%"/>
                <stop stop-opacity="1" stop-color="rgb(158,213,158)" offset="100%"/>
            </linearGradient>
            <linearGradient x1="430" x2="430" y1="90" gradientUnits="userSpaceOnUse" y2="131" xlink:type="simple" xlink:actuate="onLoad" id="linearGradient7" xlink:show="other" spreadMethod="pad">
                <stop stop-opacity="1" stop-color="white" offset="0%"/>
                <stop stop-opacity="1" stop-color="rgb(215,175,215)" offset="100%"/>
            </linearGradient>
            <clipPath clipPathUnits="userSpaceOnUse" id="clipPath1">
                <path d="M210 50 L210 90 L290 90 L290 50 Z"/>
            </clipPath>
            <clipPath clipPathUnits="userSpaceOnUse" id="clipPath2">
                <path d="M217 54 L286 54 L286 71 L217 71 L217 54 Z"/>
            </clipPath>
            <clipPath clipPathUnits="userSpaceOnUse" id="clipPath3">
                <path d="M235 70 L267 70 L267 87 L235 87 L235 70 Z"/>
            </clipPath>
            <clipPath clipPathUnits="userSpaceOnUse" id="clipPath4">
                <path d="M209 49 L292 49 L292 92 L209 92 L209 49 Z"/>
            </clipPath>
            <clipPath clipPathUnits="userSpaceOnUse" id="clipPath5">
                <path d="M10 50 L10 90 L109 90 L109 50 Z"/>
            </clipPath>
            <clipPath clipPathUnits="userSpaceOnUse" id="clipPath6">
                <path d="M25 54 L96 54 L96 71 L25 71 L25 54 Z"/>
            </clipPath>
            <clipPath clipPathUnits="userSpaceOnUse" id="clipPath7">
                <path d="M33 70 L89 70 L89 87 L33 87 L33 70 Z"/>
            </clipPath>
            <clipPath clipPathUnits="userSpaceOnUse" id="clipPath8">
                <path d="M9 49 L111 49 L111 92 L9 92 L9 49 Z"/>
            </clipPath>
            <clipPath clipPathUnits="userSpaceOnUse" id="clipPath9">
                <path d="M210 170 L210 210 L289 210 L289 170 Z"/>
            </clipPath>
            <clipPath clipPathUnits="userSpaceOnUse" id="clipPath10">
                <path d="M215 174 L286 174 L286 191 L215 191 L215 174 Z"/>
            </clipPath>
            <clipPath clipPathUnits="userSpaceOnUse" id="clipPath11">
                <path d="M217 190 L285 190 L285 207 L217 207 L217 190 Z"/>
            </clipPath>
            <clipPath clipPathUnits="userSpaceOnUse" id="clipPath12">
                <path d="M209 169 L291 169 L291 212 L209 212 L209 169 Z"/>
            </clipPath>
            <clipPath clipPathUnits="userSpaceOnUse" id="clipPath13">
                <path d="M330 170 L330 210 L410 210 L410 170 Z"/>
            </clipPath>
            <clipPath clipPathUnits="userSpaceOnUse" id="clipPath14">
                <path d="M336 174 L407 174 L407 191 L336 191 L336 174 Z"/>
            </clipPath>
            <clipPath clipPathUnits="userSpaceOnUse" id="clipPath15">
                <path d="M358 190 L385 190 L385 207 L358 207 L358 190 Z"/>
            </clipPath>
            <clipPath clipPathUnits="userSpaceOnUse" id="clipPath16">
                <path d="M329 169 L412 169 L412 212 L329 212 L329 169 Z"/>
            </clipPath>
            <clipPath clipPathUnits="userSpaceOnUse" id="clipPath17">
                <path d="M90 170 L90 210 L169 210 L169 170 Z"/>
            </clipPath>
            <clipPath clipPathUnits="userSpaceOnUse" id="clipPath18">
                <path d="M95 174 L166 174 L166 191 L95 191 L95 174 Z"/>
            </clipPath>
            <clipPath clipPathUnits="userSpaceOnUse" id="clipPath19">
                <path d="M109 190 L152 190 L152 207 L109 207 L109 190 Z"/>
            </clipPath>
            <clipPath clipPathUnits="userSpaceOnUse" id="clipPath20">
                <path d="M89 169 L171 169 L171 212 L89 212 L89 169 Z"/>
            </clipPath>
            <clipPath clipPathUnits="userSpaceOnUse" id="clipPath21">
                <path d="M430 10 L430 50 L529 50 L529 10 Z"/>
            </clipPath>
            <clipPath clipPathUnits="userSpaceOnUse" id="clipPath22">
                <path d="M445 14 L516 14 L516 31 L445 31 L445 14 Z"/>
            </clipPath>
            <clipPath clipPathUnits="userSpaceOnUse" id="clipPath23">
                <path d="M461 30 L501 30 L501 47 L461 47 L461 30 Z"/>
            </clipPath>
            <clipPath clipPathUnits="userSpaceOnUse" id="clipPath24">
                <path d="M429 9 L531 9 L531 52 L429 52 L429 9 Z"/>
            </clipPath>
            <clipPath clipPathUnits="userSpaceOnUse" id="clipPath25">
                <path d="M430 90 L430 130 L529 130 L529 90 Z"/>
            </clipPath>
            <clipPath clipPathUnits="userSpaceOnUse" id="clipPath26">
                <path d="M445 94 L516 94 L516 111 L445 111 L445 94 Z"/>
            </clipPath>
            <clipPath clipPathUnits="userSpaceOnUse" id="clipPath27">
                <path d="M460 110 L502 110 L502 127 L460 127 L460 110 Z"/>
            </clipPath>
            <clipPath clipPathUnits="userSpaceOnUse" id="clipPath28">
                <path d="M429 89 L531 89 L531 132 L429 132 L429 89 Z"/>
            </clipPath>
            <clipPath clipPathUnits="userSpaceOnUse" id="clipPath29">
                <path d="M-1 -1 L541 -1 L541 222 L-1 222 L-1 -1 Z"/>
            </clipPath>
            <clipPath clipPathUnits="userSpaceOnUse" id="clipPath30">
                <path d="M194 64 L212 64 L212 77 L194 77 L194 64 Z"/>
            </clipPath>
            <clipPath clipPathUnits="userSpaceOnUse" id="clipPath31">
                <path d="M290 64 L308 64 L308 77 L290 77 L290 64 Z"/>
            </clipPath>
            <clipPath clipPathUnits="userSpaceOnUse" id="clipPath32">
                <path d="M244 90 L257 90 L257 108 L244 108 L244 90 Z"/>
            </clipPath>
        </defs>
        <g font-size="14px" fill="url(#linearGradient1)" font-family="'Roboto'" stroke-linejoin="round" stroke="url(#linearGradient1)" stroke-width="0" stroke-miterlimit="0">
            <rect x="210" width="81" height="41" y="50" clip-path="url(#clipPath1)" stroke="none"/>
            <text x="218" font-size="12px" y="67" clip-path="url(#clipPath2)" fill="black" stroke="none" xml:space="preserve">«Metaclass»</text>
            <text x="236" font-size="12px" y="83" clip-path="url(#clipPath3)" fill="black" stroke="none" xml:space="preserve">Class</text>
        </g>
        <g font-size="14px" stroke-width="1.1" font-family="'Roboto'" stroke-linecap="butt">
            <rect x="210" y="50" clip-path="url(#clipPath4)" fill="none" width="80" rx="0" ry="0" height="40"/>
            <rect x="10" y="50" clip-path="url(#clipPath5)" fill="url(#linearGradient2)" width="100" height="41" stroke="none"/>
            <text x="26" xml:space="preserve" font-size="12px" y="67" clip-path="url(#clipPath6)" stroke="none">«Stereotype»</text>
            <text x="34" xml:space="preserve" font-size="12px" y="83" clip-path="url(#clipPath7)" stroke="none">Corporate</text>
            <rect x="10" y="50" clip-path="url(#clipPath8)" fill="none" width="99" rx="0" ry="0" height="40"/>
            <rect x="210" y="170" clip-path="url(#clipPath9)" fill="url(#linearGradient3)" width="80" height="41" stroke="none"/>
            <text x="216" xml:space="preserve" font-size="12px" y="187" clip-path="url(#clipPath10)" stroke="none">«Stereotype»</text>
            <text x="218" xml:space="preserve" font-size="12px" y="203" clip-path="url(#clipPath11)" stroke="none">ModuleType</text>
            <rect x="210" y="170" clip-path="url(#clipPath12)" fill="none" width="79" rx="0" ry="0" height="40"/>
            <rect x="330" y="170" clip-path="url(#clipPath13)" fill="url(#linearGradient4)" width="81" height="41" stroke="none"/>
            <text x="337" xml:space="preserve" font-size="12px" y="187" clip-path="url(#clipPath14)" stroke="none">«Stereotype»</text>
            <text x="359" xml:space="preserve" font-size="12px" y="203" clip-path="url(#clipPath15)" stroke="none">BOM</text>
            <rect x="330" y="170" clip-path="url(#clipPath16)" fill="none" width="80" rx="0" ry="0" height="40"/>
            <rect x="90" y="170" clip-path="url(#clipPath17)" fill="url(#linearGradient5)" width="80" height="41" stroke="none"/>
            <text x="96" xml:space="preserve" font-size="12px" y="187" clip-path="url(#clipPath18)" stroke="none">«Stereotype»</text>
            <text x="110" xml:space="preserve" font-size="12px" y="203" clip-path="url(#clipPath19)" stroke="none">Reactor</text>
            <rect x="90" y="170" clip-path="url(#clipPath20)" fill="none" width="79" rx="0" ry="0" height="40"/>
            <rect x="430" y="10" clip-path="url(#clipPath21)" fill="url(#linearGradient6)" width="100" height="41" stroke="none"/>
            <text x="446" xml:space="preserve" font-size="12px" y="27" clip-path="url(#clipPath22)" stroke="none">«Stereotype»</text>
            <text x="462" xml:space="preserve" font-size="12px" y="43" clip-path="url(#clipPath23)" stroke="none">Project</text>
            <rect x="430" y="10" clip-path="url(#clipPath24)" fill="none" width="99" rx="0" ry="0" height="40"/>
            <rect x="430" y="90" clip-path="url(#clipPath25)" fill="url(#linearGradient7)" width="100" height="41" stroke="none"/>
            <text x="446" xml:space="preserve" font-size="12px" y="107" clip-path="url(#clipPath26)" stroke="none">«Stereotype»</text>
            <text x="461" xml:space="preserve" font-size="12px" y="123" clip-path="url(#clipPath27)" stroke="none">Module</text>
            <rect x="430" y="90" clip-path="url(#clipPath28)" fill="none" width="99" rx="0" ry="0" height="40"/>
            <line clip-path="url(#clipPath29)" fill="none" text-rendering="optimizeLegibility" x1="110" x2="210" y1="70" y2="70"/>
            <polygon text-rendering="optimizeLegibility" clip-path="url(#clipPath30)" points=" 210 70 195 75 195 65" stroke="none"/>
            <polygon fill="none" text-rendering="optimizeLegibility" clip-path="url(#clipPath30)" points=" 210 70 195 75 195 65"/>
            <line clip-path="url(#clipPath29)" fill="none" text-rendering="optimizeLegibility" x1="430" x2="390" y1="30" y2="30"/>
            <line clip-path="url(#clipPath29)" fill="none" text-rendering="optimizeLegibility" x1="390" x2="390" y1="30" y2="70"/>
            <line clip-path="url(#clipPath29)" fill="none" text-rendering="optimizeLegibility" x1="390" x2="291" y1="70" y2="70"/>
            <polygon text-rendering="optimizeLegibility" clip-path="url(#clipPath31)" points=" 291 70 306 65 306 75" stroke="none"/>
            <polygon fill="none" text-rendering="optimizeLegibility" clip-path="url(#clipPath31)" points=" 291 70 306 65 306 75"/>
            <line clip-path="url(#clipPath29)" fill="none" text-rendering="optimizeLegibility" x1="430" x2="390" y1="110" y2="110"/>
            <line clip-path="url(#clipPath29)" fill="none" text-rendering="optimizeLegibility" x1="390" x2="390" y1="110" y2="70"/>
            <line clip-path="url(#clipPath29)" fill="none" text-rendering="optimizeLegibility" x1="390" x2="291" y1="70" y2="70"/>
            <polygon text-rendering="optimizeLegibility" clip-path="url(#clipPath31)" points=" 291 70 306 65 306 75" stroke="none"/>
            <polygon fill="none" text-rendering="optimizeLegibility" clip-path="url(#clipPath31)" points=" 291 70 306 65 306 75"/>
            <line clip-path="url(#clipPath29)" fill="none" text-rendering="optimizeLegibility" x1="130" x2="130" y1="170" y2="130"/>
            <line clip-path="url(#clipPath29)" fill="none" text-rendering="optimizeLegibility" x1="130" x2="250" y1="130" y2="130"/>
            <line clip-path="url(#clipPath29)" fill="none" text-rendering="optimizeLegibility" x1="250" x2="250" y1="130" y2="91"/>
            <polygon text-rendering="optimizeLegibility" clip-path="url(#clipPath32)" points=" 250 91 255 106 245 106" stroke="none"/>
            <polygon fill="none" text-rendering="optimizeLegibility" clip-path="url(#clipPath32)" points=" 250 91 255 106 245 106"/>
            <line clip-path="url(#clipPath29)" fill="none" text-rendering="optimizeLegibility" x1="370" x2="370" y1="170" y2="130"/>
            <line clip-path="url(#clipPath29)" fill="none" text-rendering="optimizeLegibility" x1="370" x2="250" y1="130" y2="130"/>
            <line clip-path="url(#clipPath29)" fill="none" text-rendering="optimizeLegibility" x1="250" x2="250" y1="130" y2="91"/>
            <polygon text-rendering="optimizeLegibility" clip-path="url(#clipPath32)" points=" 250 91 255 106 245 106" stroke="none"/>
            <polygon fill="none" text-rendering="optimizeLegibility" clip-path="url(#clipPath32)" points=" 250 91 255 106 245 106"/>
            <line clip-path="url(#clipPath29)" fill="none" text-rendering="optimizeLegibility" x1="250" x2="250" y1="170" y2="91"/>
            <polygon text-rendering="optimizeLegibility" clip-path="url(#clipPath32)" points=" 250 91 255 106 245 106" stroke="none"/>
            <polygon fill="none" text-rendering="optimizeLegibility" clip-path="url(#clipPath32)" points=" 250 91 255 106 245 106"/>
        </g>
    </g>
</svg>
