<?xml version="1.0" encoding="UTF-8"?><svg xmlns="http://www.w3.org/2000/svg" xmlns:xlink="http://www.w3.org/1999/xlink" stroke-dasharray="none" shape-rendering="auto" font-family="'Dialog'" width="661" text-rendering="auto" fill-opacity="1" contentScriptType="text/ecmascript" color-interpolation="auto" color-rendering="auto" preserveAspectRatio="xMidYMid meet" font-size="12px" viewBox="0 0 661 621" fill="black" stroke="black" image-rendering="auto" stroke-miterlimit="10" zoomAndPan="magnify" version="1.0" stroke-linecap="square" stroke-linejoin="miter" contentStyleType="text/css" font-style="normal" height="621" stroke-width="1" stroke-dashoffset="0" font-weight="normal" stroke-opacity="1">
    <!--Generated by the Batik Graphics2D SVG Generator-->
    <defs id="genericDefs"/>
    <g>
        <defs id="defs1">
            <linearGradient x1="270" x2="390" y1="170" gradientUnits="userSpaceOnUse" y2="170" xlink:type="simple" xlink:actuate="onLoad" id="linearGradient1" xlink:show="other" spreadMethod="pad">
                <stop stop-opacity="1" stop-color="white" offset="0%"/>
                <stop stop-opacity="1" stop-color="rgb(173,204,219)" offset="100%"/>
            </linearGradient>
            <linearGradient x1="190" x2="310" y1="330" gradientUnits="userSpaceOnUse" y2="330" xlink:type="simple" xlink:actuate="onLoad" id="linearGradient2" xlink:show="other" spreadMethod="pad">
                <stop stop-opacity="1" stop-color="white" offset="0%"/>
                <stop stop-opacity="1" stop-color="rgb(255,229,153)" offset="100%"/>
            </linearGradient>
            <linearGradient x1="350" x2="471" y1="330" gradientUnits="userSpaceOnUse" y2="330" xlink:type="simple" xlink:actuate="onLoad" id="linearGradient3" xlink:show="other" spreadMethod="pad">
                <stop stop-opacity="1" stop-color="white" offset="0%"/>
                <stop stop-opacity="1" stop-color="rgb(255,229,153)" offset="100%"/>
            </linearGradient>
            <linearGradient x1="530" x2="651" y1="210" gradientUnits="userSpaceOnUse" y2="210" xlink:type="simple" xlink:actuate="onLoad" id="linearGradient4" xlink:show="other" spreadMethod="pad">
                <stop stop-opacity="1" stop-color="white" offset="0%"/>
                <stop stop-opacity="1" stop-color="rgb(173,204,219)" offset="100%"/>
            </linearGradient>
            <linearGradient x1="270" x2="390" y1="10" gradientUnits="userSpaceOnUse" y2="10" xlink:type="simple" xlink:actuate="onLoad" id="linearGradient5" xlink:show="other" spreadMethod="pad">
                <stop stop-opacity="1" stop-color="white" offset="0%"/>
                <stop stop-opacity="1" stop-color="rgb(173,219,211)" offset="100%"/>
            </linearGradient>
            <linearGradient x1="190" x2="311" y1="410" gradientUnits="userSpaceOnUse" y2="410" xlink:type="simple" xlink:actuate="onLoad" id="linearGradient6" xlink:show="other" spreadMethod="pad">
                <stop stop-opacity="1" stop-color="white" offset="0%"/>
                <stop stop-opacity="1" stop-color="rgb(158,213,158)" offset="100%"/>
            </linearGradient>
            <linearGradient x1="350" x2="471" y1="410" gradientUnits="userSpaceOnUse" y2="410" xlink:type="simple" xlink:actuate="onLoad" id="linearGradient7" xlink:show="other" spreadMethod="pad">
                <stop stop-opacity="1" stop-color="white" offset="0%"/>
                <stop stop-opacity="1" stop-color="rgb(158,213,158)" offset="100%"/>
            </linearGradient>
            <linearGradient x1="10" x2="131" y1="490" gradientUnits="userSpaceOnUse" y2="490" xlink:type="simple" xlink:actuate="onLoad" id="linearGradient8" xlink:show="other" spreadMethod="pad">
                <stop stop-opacity="1" stop-color="white" offset="0%"/>
                <stop stop-opacity="1" stop-color="rgb(230,227,229)" offset="100%"/>
            </linearGradient>
            <linearGradient x1="530" x2="651" y1="490" gradientUnits="userSpaceOnUse" y2="490" xlink:type="simple" xlink:actuate="onLoad" id="linearGradient9" xlink:show="other" spreadMethod="pad">
                <stop stop-opacity="1" stop-color="white" offset="0%"/>
                <stop stop-opacity="1" stop-color="rgb(230,227,229)" offset="100%"/>
            </linearGradient>
            <linearGradient x1="190" x2="311" y1="490" gradientUnits="userSpaceOnUse" y2="490" xlink:type="simple" xlink:actuate="onLoad" id="linearGradient10" xlink:show="other" spreadMethod="pad">
                <stop stop-opacity="1" stop-color="white" offset="0%"/>
                <stop stop-opacity="1" stop-color="rgb(158,213,158)" offset="100%"/>
            </linearGradient>
            <linearGradient x1="190" x2="311" y1="570" gradientUnits="userSpaceOnUse" y2="570" xlink:type="simple" xlink:actuate="onLoad" id="linearGradient11" xlink:show="other" spreadMethod="pad">
                <stop stop-opacity="1" stop-color="white" offset="0%"/>
                <stop stop-opacity="1" stop-color="rgb(158,213,158)" offset="100%"/>
            </linearGradient>
            <clipPath clipPathUnits="userSpaceOnUse" id="clipPath1">
                <path d="M270 170 L270 270 L389 270 L389 170 Z"/>
            </clipPath>
            <clipPath clipPathUnits="userSpaceOnUse" id="clipPath2">
                <path d="M305 172 L357 172 L357 189 L305 189 L305 172 Z"/>
            </clipPath>
            <clipPath clipPathUnits="userSpaceOnUse" id="clipPath3">
                <path d="M311 188 L350 188 L350 205 L311 205 L311 188 Z"/>
            </clipPath>
            <clipPath clipPathUnits="userSpaceOnUse" id="clipPath4">
                <path d="M275 206 L314 206 L314 223 L275 223 L275 206 Z"/>
            </clipPath>
            <clipPath clipPathUnits="userSpaceOnUse" id="clipPath5">
                <path d="M275 221 L357 221 L357 238 L275 238 L275 221 Z"/>
            </clipPath>
            <clipPath clipPathUnits="userSpaceOnUse" id="clipPath6">
                <path d="M275 236 L341 236 L341 253 L275 253 L275 236 Z"/>
            </clipPath>
            <clipPath clipPathUnits="userSpaceOnUse" id="clipPath7">
                <path d="M275 251 L337 251 L337 268 L275 268 L275 251 Z"/>
            </clipPath>
            <clipPath clipPathUnits="userSpaceOnUse" id="clipPath8">
                <path d="M270 204 L391 204 L391 272 L270 272 L270 204 Z"/>
            </clipPath>
            <clipPath clipPathUnits="userSpaceOnUse" id="clipPath9">
                <path d="M269 169 L391 169 L391 272 L269 272 L269 169 Z"/>
            </clipPath>
            <clipPath clipPathUnits="userSpaceOnUse" id="clipPath10">
                <path d="M190 330 L190 370 L309 370 L309 330 Z"/>
            </clipPath>
            <clipPath clipPathUnits="userSpaceOnUse" id="clipPath11">
                <path d="M211 334 L291 334 L291 351 L211 351 L211 334 Z"/>
            </clipPath>
            <clipPath clipPathUnits="userSpaceOnUse" id="clipPath12">
                <path d="M231 350 L270 350 L270 367 L231 367 L231 350 Z"/>
            </clipPath>
            <clipPath clipPathUnits="userSpaceOnUse" id="clipPath13">
                <path d="M189 329 L311 329 L311 372 L189 372 L189 329 Z"/>
            </clipPath>
            <clipPath clipPathUnits="userSpaceOnUse" id="clipPath14">
                <path d="M350 330 L350 370 L470 370 L470 330 Z"/>
            </clipPath>
            <clipPath clipPathUnits="userSpaceOnUse" id="clipPath15">
                <path d="M371 334 L451 334 L451 351 L371 351 L371 334 Z"/>
            </clipPath>
            <clipPath clipPathUnits="userSpaceOnUse" id="clipPath16">
                <path d="M374 350 L449 350 L449 367 L374 367 L374 350 Z"/>
            </clipPath>
            <clipPath clipPathUnits="userSpaceOnUse" id="clipPath17">
                <path d="M349 329 L472 329 L472 372 L349 372 L349 329 Z"/>
            </clipPath>
            <clipPath clipPathUnits="userSpaceOnUse" id="clipPath18">
                <path d="M530 210 L530 270 L650 270 L650 210 Z"/>
            </clipPath>
            <clipPath clipPathUnits="userSpaceOnUse" id="clipPath19">
                <path d="M572 212 L611 212 L611 229 L572 229 L572 212 Z"/>
            </clipPath>
            <clipPath clipPathUnits="userSpaceOnUse" id="clipPath20">
                <path d="M578 228 L605 228 L605 245 L578 245 L578 228 Z"/>
            </clipPath>
            <clipPath clipPathUnits="userSpaceOnUse" id="clipPath21">
                <path d="M535 246 L617 246 L617 263 L535 263 L535 246 Z"/>
            </clipPath>
            <clipPath clipPathUnits="userSpaceOnUse" id="clipPath22">
                <path d="M530 244 L652 244 L652 272 L530 272 L530 244 Z"/>
            </clipPath>
            <clipPath clipPathUnits="userSpaceOnUse" id="clipPath23">
                <path d="M529 209 L652 209 L652 272 L529 272 L529 209 Z"/>
            </clipPath>
            <clipPath clipPathUnits="userSpaceOnUse" id="clipPath24">
                <path d="M270 10 L270 130 L389 130 L389 10 Z"/>
            </clipPath>
            <clipPath clipPathUnits="userSpaceOnUse" id="clipPath25">
                <path d="M297 12 L365 12 L365 29 L297 29 L297 12 Z"/>
            </clipPath>
            <clipPath clipPathUnits="userSpaceOnUse" id="clipPath26">
                <path d="M312 28 L350 28 L350 45 L312 45 L312 28 Z"/>
            </clipPath>
            <clipPath clipPathUnits="userSpaceOnUse" id="clipPath27">
                <path d="M275 46 L352 46 L352 63 L275 63 L275 46 Z"/>
            </clipPath>
            <clipPath clipPathUnits="userSpaceOnUse" id="clipPath28">
                <path d="M275 61 L345 61 L345 78 L275 78 L275 61 Z"/>
            </clipPath>
            <clipPath clipPathUnits="userSpaceOnUse" id="clipPath29">
                <path d="M275 76 L332 76 L332 93 L275 93 L275 76 Z"/>
            </clipPath>
            <clipPath clipPathUnits="userSpaceOnUse" id="clipPath30">
                <path d="M275 91 L323 91 L323 108 L275 108 L275 91 Z"/>
            </clipPath>
            <clipPath clipPathUnits="userSpaceOnUse" id="clipPath31">
                <path d="M275 106 L323 106 L323 123 L275 123 L275 106 Z"/>
            </clipPath>
            <clipPath clipPathUnits="userSpaceOnUse" id="clipPath32">
                <path d="M270 44 L391 44 L391 132 L270 132 L270 44 Z"/>
            </clipPath>
            <clipPath clipPathUnits="userSpaceOnUse" id="clipPath33">
                <path d="M269 9 L391 9 L391 132 L269 132 L269 9 Z"/>
            </clipPath>
            <clipPath clipPathUnits="userSpaceOnUse" id="clipPath34">
                <path d="M190 410 L190 450 L310 450 L310 410 Z"/>
            </clipPath>
            <clipPath clipPathUnits="userSpaceOnUse" id="clipPath35">
                <path d="M224 414 L278 414 L278 431 L224 431 L224 414 Z"/>
            </clipPath>
            <clipPath clipPathUnits="userSpaceOnUse" id="clipPath36">
                <path d="M233 430 L269 430 L269 447 L233 447 L233 430 Z"/>
            </clipPath>
            <clipPath clipPathUnits="userSpaceOnUse" id="clipPath37">
                <path d="M189 409 L312 409 L312 452 L189 452 L189 409 Z"/>
            </clipPath>
            <clipPath clipPathUnits="userSpaceOnUse" id="clipPath38">
                <path d="M350 410 L350 450 L470 450 L470 410 Z"/>
            </clipPath>
            <clipPath clipPathUnits="userSpaceOnUse" id="clipPath39">
                <path d="M384 414 L438 414 L438 431 L384 431 L384 414 Z"/>
            </clipPath>
            <clipPath clipPathUnits="userSpaceOnUse" id="clipPath40">
                <path d="M383 430 L439 430 L439 447 L383 447 L383 430 Z"/>
            </clipPath>
            <clipPath clipPathUnits="userSpaceOnUse" id="clipPath41">
                <path d="M349 409 L472 409 L472 452 L349 452 L349 409 Z"/>
            </clipPath>
            <clipPath clipPathUnits="userSpaceOnUse" id="clipPath42">
                <path d="M10 490 L10 530 L130 530 L130 490 Z"/>
            </clipPath>
            <clipPath clipPathUnits="userSpaceOnUse" id="clipPath43">
                <path d="M44 494 L99 494 L99 511 L44 511 L44 494 Z"/>
            </clipPath>
            <clipPath clipPathUnits="userSpaceOnUse" id="clipPath44">
                <path d="M46 510 L96 510 L96 527 L46 527 L46 510 Z"/>
            </clipPath>
            <clipPath clipPathUnits="userSpaceOnUse" id="clipPath45">
                <path d="M9 489 L132 489 L132 532 L9 532 L9 489 Z"/>
            </clipPath>
            <clipPath clipPathUnits="userSpaceOnUse" id="clipPath46">
                <path d="M530 490 L530 530 L650 530 L650 490 Z"/>
            </clipPath>
            <clipPath clipPathUnits="userSpaceOnUse" id="clipPath47">
                <path d="M564 494 L619 494 L619 511 L564 511 L564 494 Z"/>
            </clipPath>
            <clipPath clipPathUnits="userSpaceOnUse" id="clipPath48">
                <path d="M559 510 L624 510 L624 527 L559 527 L559 510 Z"/>
            </clipPath>
            <clipPath clipPathUnits="userSpaceOnUse" id="clipPath49">
                <path d="M529 489 L652 489 L652 532 L529 532 L529 489 Z"/>
            </clipPath>
            <clipPath clipPathUnits="userSpaceOnUse" id="clipPath50">
                <path d="M190 490 L190 530 L310 530 L310 490 Z"/>
            </clipPath>
            <clipPath clipPathUnits="userSpaceOnUse" id="clipPath51">
                <path d="M224 494 L278 494 L278 511 L224 511 L224 494 Z"/>
            </clipPath>
            <clipPath clipPathUnits="userSpaceOnUse" id="clipPath52">
                <path d="M236 510 L267 510 L267 527 L236 527 L236 510 Z"/>
            </clipPath>
            <clipPath clipPathUnits="userSpaceOnUse" id="clipPath53">
                <path d="M189 489 L312 489 L312 532 L189 532 L189 489 Z"/>
            </clipPath>
            <clipPath clipPathUnits="userSpaceOnUse" id="clipPath54">
                <path d="M190 570 L190 610 L310 610 L310 570 Z"/>
            </clipPath>
            <clipPath clipPathUnits="userSpaceOnUse" id="clipPath55">
                <path d="M224 574 L278 574 L278 591 L224 591 L224 574 Z"/>
            </clipPath>
            <clipPath clipPathUnits="userSpaceOnUse" id="clipPath56">
                <path d="M226 590 L276 590 L276 607 L226 607 L226 590 Z"/>
            </clipPath>
            <clipPath clipPathUnits="userSpaceOnUse" id="clipPath57">
                <path d="M189 569 L312 569 L312 612 L189 612 L189 569 Z"/>
            </clipPath>
            <clipPath clipPathUnits="userSpaceOnUse" id="clipPath58">
                <path d="M-1 -1 L662 -1 L662 622 L-1 622 L-1 -1 Z"/>
            </clipPath>
            <clipPath clipPathUnits="userSpaceOnUse" id="clipPath59">
                <path d="M321 270 L340 270 L340 283 L321 283 L321 270 Z"/>
            </clipPath>
            <clipPath clipPathUnits="userSpaceOnUse" id="clipPath60">
                <path d="M321 130 L340 130 L340 143 L321 143 L321 130 Z"/>
            </clipPath>
            <clipPath clipPathUnits="userSpaceOnUse" id="clipPath61">
                <path d="M241 370 L260 370 L260 383 L241 383 L241 370 Z"/>
            </clipPath>
            <clipPath clipPathUnits="userSpaceOnUse" id="clipPath62">
                <path d="M401 370 L420 370 L420 383 L401 383 L401 370 Z"/>
            </clipPath>
            <clipPath clipPathUnits="userSpaceOnUse" id="clipPath63">
                <path d="M259 61 L272 61 L272 80 L259 80 L259 61 Z"/>
            </clipPath>
            <clipPath clipPathUnits="userSpaceOnUse" id="clipPath64">
                <path d="M244 450 L257 450 L257 468 L244 468 L244 450 Z"/>
            </clipPath>
            <clipPath clipPathUnits="userSpaceOnUse" id="clipPath65">
                <path d="M310 424 L328 424 L328 437 L310 437 L310 424 Z"/>
            </clipPath>
            <clipPath clipPathUnits="userSpaceOnUse" id="clipPath66">
                <path d="M449 209 L499 209 L499 226 L449 226 L449 209 Z"/>
            </clipPath>
            <clipPath clipPathUnits="userSpaceOnUse" id="clipPath67">
                <path d="M514 224 L532 224 L532 237 L514 237 L514 224 Z"/>
            </clipPath>
            <clipPath clipPathUnits="userSpaceOnUse" id="clipPath68">
                <path d="M176 429 L192 429 L192 447 L176 447 L176 429 Z"/>
            </clipPath>
            <clipPath clipPathUnits="userSpaceOnUse" id="clipPath69">
                <path d="M174 504 L192 504 L192 517 L174 517 L174 504 Z"/>
            </clipPath>
            <clipPath clipPathUnits="userSpaceOnUse" id="clipPath70">
                <path d="M176 574 L192 574 L192 592 L176 592 L176 574 Z"/>
            </clipPath>
            <clipPath clipPathUnits="userSpaceOnUse" id="clipPath71">
                <path d="M470 429 L486 429 L486 447 L470 447 L470 429 Z"/>
            </clipPath>
            <clipPath clipPathUnits="userSpaceOnUse" id="clipPath72">
                <path d="M389 61 L402 61 L402 80 L389 80 L389 61 Z"/>
            </clipPath>
        </defs>
        <g font-size="14px" fill="url(#linearGradient1)" font-family="'Roboto'" stroke-linejoin="round" stroke="url(#linearGradient1)" stroke-width="0" stroke-miterlimit="0">
            <rect x="270" width="120" height="101" y="170" clip-path="url(#clipPath1)" stroke="none"/>
            <text x="306" font-size="12px" y="185" clip-path="url(#clipPath2)" fill="black" stroke="none" xml:space="preserve">«Project»</text>
            <text x="312" font-size="12px" y="201" clip-path="url(#clipPath3)" fill="black" stroke="none" xml:space="preserve">project</text>
            <text x="276" font-size="12px" y="219" clip-path="url(#clipPath4)" fill="black" stroke="none" xml:space="preserve">  name</text>
            <text x="276" font-size="12px" y="234" clip-path="url(#clipPath5)" fill="black" stroke="none" xml:space="preserve">  inceptionYear</text>
            <text x="276" font-size="12px" y="249" clip-path="url(#clipPath6)" fill="black" stroke="none" xml:space="preserve">  developers</text>
            <text x="276" font-size="12px" y="264" clip-path="url(#clipPath7)" fill="black" stroke="none" xml:space="preserve">  properties</text>
        </g>
        <g font-size="14px" stroke-width="1.1" font-family="'Roboto'" stroke-linecap="butt">
            <line y2="205" fill="none" x1="270" clip-path="url(#clipPath8)" x2="390" y1="205"/>
            <rect x="270" y="170" clip-path="url(#clipPath9)" fill="none" width="119" rx="0" ry="0" height="100"/>
            <rect x="190" y="330" clip-path="url(#clipPath10)" fill="url(#linearGradient2)" width="120" height="41" stroke="none"/>
            <text x="212" xml:space="preserve" font-size="12px" y="347" clip-path="url(#clipPath11)" stroke="none">«ModuleType»</text>
            <text x="232" xml:space="preserve" font-size="12px" y="363" clip-path="url(#clipPath12)" stroke="none">bundle</text>
            <rect x="190" y="330" clip-path="url(#clipPath13)" fill="none" width="119" rx="0" ry="0" height="40"/>
            <rect x="350" y="330" clip-path="url(#clipPath14)" fill="url(#linearGradient3)" width="121" height="41" stroke="none"/>
            <text x="372" xml:space="preserve" font-size="12px" y="347" clip-path="url(#clipPath15)" stroke="none">«ModuleType»</text>
            <text x="375" xml:space="preserve" font-size="12px" y="363" clip-path="url(#clipPath16)" stroke="none">repository.jdo</text>
            <rect x="350" y="330" clip-path="url(#clipPath17)" fill="none" width="120" rx="0" ry="0" height="40"/>
            <rect x="530" y="210" clip-path="url(#clipPath18)" fill="url(#linearGradient4)" width="121" height="61" stroke="none"/>
            <text x="573" xml:space="preserve" font-size="12px" y="225" clip-path="url(#clipPath19)" stroke="none">«BOM»</text>
            <text x="579" xml:space="preserve" font-size="12px" y="241" clip-path="url(#clipPath20)" stroke="none">bom</text>
            <text x="536" xml:space="preserve" font-size="12px" y="259" clip-path="url(#clipPath21)" stroke="none">  dependencies</text>
            <line y2="245" fill="none" x1="530" clip-path="url(#clipPath22)" x2="651" y1="245"/>
            <rect x="530" y="210" clip-path="url(#clipPath23)" fill="none" width="120" rx="0" ry="0" height="60"/>
            <rect x="270" y="10" clip-path="url(#clipPath24)" fill="url(#linearGradient5)" width="120" height="121" stroke="none"/>
            <text x="298" xml:space="preserve" font-size="12px" y="25" clip-path="url(#clipPath25)" stroke="none">«Corporate»</text>
            <text x="313" xml:space="preserve" font-size="12px" y="41" clip-path="url(#clipPath26)" stroke="none">tautua</text>
            <text x="276" xml:space="preserve" font-size="12px" y="59" clip-path="url(#clipPath27)" stroke="none">  organization</text>
            <text x="276" xml:space="preserve" font-size="12px" y="74" clip-path="url(#clipPath28)" stroke="none">  distribution</text>
            <text x="276" xml:space="preserve" font-size="12px" y="89" clip-path="url(#clipPath29)" stroke="none">  reporting</text>
            <text x="276" xml:space="preserve" font-size="12px" y="104" clip-path="url(#clipPath30)" stroke="none">  plugins</text>
            <text x="276" xml:space="preserve" font-size="12px" y="119" clip-path="url(#clipPath31)" stroke="none">  profiles</text>
            <line y2="45" fill="none" x1="270" clip-path="url(#clipPath32)" x2="390" y1="45"/>
            <rect x="270" y="10" clip-path="url(#clipPath33)" fill="none" width="119" rx="0" ry="0" height="120"/>
            <rect x="190" y="410" clip-path="url(#clipPath34)" fill="url(#linearGradient6)" width="121" height="41" stroke="none"/>
            <text x="225" xml:space="preserve" font-size="12px" y="427" clip-path="url(#clipPath35)" stroke="none">«Module»</text>
            <text x="234" xml:space="preserve" font-size="12px" y="443" clip-path="url(#clipPath36)" stroke="none">actors</text>
            <rect x="190" y="410" clip-path="url(#clipPath37)" fill="none" width="120" rx="0" ry="0" height="40"/>
            <rect x="350" y="410" clip-path="url(#clipPath38)" fill="url(#linearGradient7)" width="121" height="41" stroke="none"/>
            <text x="385" xml:space="preserve" font-size="12px" y="427" clip-path="url(#clipPath39)" stroke="none">«Module»</text>
            <text x="384" xml:space="preserve" font-size="12px" y="443" clip-path="url(#clipPath40)" stroke="none">actors.jdo</text>
            <rect x="350" y="410" clip-path="url(#clipPath41)" fill="none" width="120" rx="0" ry="0" height="40"/>
            <rect x="10" y="490" clip-path="url(#clipPath42)" fill="url(#linearGradient8)" width="121" height="41" stroke="none"/>
            <text x="45" xml:space="preserve" font-size="12px" y="507" clip-path="url(#clipPath43)" stroke="none">«Reactor»</text>
            <text x="47" xml:space="preserve" font-size="12px" y="523" clip-path="url(#clipPath44)" stroke="none">domains</text>
            <rect x="10" y="490" clip-path="url(#clipPath45)" fill="none" width="120" rx="0" ry="0" height="40"/>
            <rect x="530" y="490" clip-path="url(#clipPath46)" fill="url(#linearGradient9)" width="121" height="41" stroke="none"/>
            <text x="565" xml:space="preserve" font-size="12px" y="507" clip-path="url(#clipPath47)" stroke="none">«Reactor»</text>
            <text x="560" xml:space="preserve" font-size="12px" y="523" clip-path="url(#clipPath48)" stroke="none">repositories</text>
            <rect x="530" y="490" clip-path="url(#clipPath49)" fill="none" width="120" rx="0" ry="0" height="40"/>
            <rect x="190" y="490" clip-path="url(#clipPath50)" fill="url(#linearGradient10)" width="121" height="41" stroke="none"/>
            <text x="225" xml:space="preserve" font-size="12px" y="507" clip-path="url(#clipPath51)" stroke="none">«Module»</text>
            <text x="237" xml:space="preserve" font-size="12px" y="523" clip-path="url(#clipPath52)" stroke="none">users</text>
            <rect x="190" y="490" clip-path="url(#clipPath53)" fill="none" width="120" rx="0" ry="0" height="40"/>
            <rect x="190" y="570" clip-path="url(#clipPath54)" fill="url(#linearGradient11)" width="121" height="41" stroke="none"/>
            <text x="225" xml:space="preserve" font-size="12px" y="587" clip-path="url(#clipPath55)" stroke="none">«Module»</text>
            <text x="227" xml:space="preserve" font-size="12px" y="603" clip-path="url(#clipPath56)" stroke="none">products</text>
            <rect x="190" y="570" clip-path="url(#clipPath57)" fill="none" width="120" rx="0" ry="0" height="40"/>
            <line clip-path="url(#clipPath58)" fill="none" text-rendering="optimizeLegibility" x1="250" x2="250" y1="330" y2="310"/>
            <line clip-path="url(#clipPath58)" fill="none" text-rendering="optimizeLegibility" x1="250" x2="330" y1="310" y2="310"/>
            <line clip-path="url(#clipPath58)" fill="none" text-rendering="optimizeLegibility" x1="330" x2="330" y1="310" y2="271"/>
        </g>
        <g fill="white" text-rendering="optimizeLegibility" stroke-width="1.1" font-family="'Roboto'" stroke-linecap="butt" stroke="white">
            <polygon points=" 330 271 338 281 322 281" stroke="none" clip-path="url(#clipPath59)"/>
            <polygon fill="none" clip-path="url(#clipPath59)" points=" 330 271 338 281 322 281" stroke="black"/>
            <line clip-path="url(#clipPath58)" fill="none" x1="410" x2="410" y1="330" y2="310" stroke="black"/>
            <line clip-path="url(#clipPath58)" fill="none" x1="410" x2="330" y1="310" y2="310" stroke="black"/>
            <line clip-path="url(#clipPath58)" fill="none" x1="330" x2="330" y1="310" y2="271" stroke="black"/>
            <polygon points=" 330 271 338 281 322 281" clip-path="url(#clipPath59)" stroke="none"/>
            <polygon fill="none" clip-path="url(#clipPath59)" points=" 330 271 338 281 322 281" stroke="black"/>
            <line clip-path="url(#clipPath58)" fill="none" x1="330" x2="330" y1="170" y2="131" stroke="black"/>
            <polygon points=" 330 131 338 141 322 141" clip-path="url(#clipPath60)" stroke="none"/>
            <polygon fill="none" clip-path="url(#clipPath60)" points=" 330 131 338 141 322 141" stroke="black"/>
            <line clip-path="url(#clipPath58)" fill="none" x1="250" x2="250" y1="410" y2="371" stroke="black"/>
            <polygon points=" 250 371 258 381 242 381" clip-path="url(#clipPath61)" stroke="none"/>
            <polygon fill="none" clip-path="url(#clipPath61)" points=" 250 371 258 381 242 381" stroke="black"/>
            <line clip-path="url(#clipPath58)" fill="none" x1="410" x2="410" y1="410" y2="371" stroke="black"/>
            <polygon points=" 410 371 418 381 402 381" clip-path="url(#clipPath62)" stroke="none"/>
            <polygon fill="none" clip-path="url(#clipPath62)" points=" 410 371 418 381 402 381" stroke="black"/>
            <line clip-path="url(#clipPath58)" fill="none" x1="70" x2="70" y1="490" y2="70" stroke="black"/>
            <line clip-path="url(#clipPath58)" fill="none" x1="70" x2="270" y1="70" y2="70" stroke="black"/>
            <polygon points=" 270 70 260 78 260 62" clip-path="url(#clipPath63)" stroke="none"/>
            <polygon fill="none" clip-path="url(#clipPath63)" points=" 270 70 260 78 260 62" stroke="black"/>
            <line clip-path="url(#clipPath58)" fill="none" x1="250" x2="250" y1="490" y2="451" stroke-dasharray="5,5,5,5,5,5,5,5,5,5" stroke="black"/>
            <line clip-path="url(#clipPath64)" fill="none" x1="255" x2="250" y1="466" y2="451" stroke="black"/>
            <line clip-path="url(#clipPath64)" fill="none" x1="250" x2="245" y1="451" y2="466" stroke="black"/>
            <line clip-path="url(#clipPath58)" fill="none" x1="350" x2="311" y1="430" y2="430" stroke-dasharray="5,5,5,5,5,5,5,5,5,5" stroke="black"/>
            <line clip-path="url(#clipPath65)" fill="none" x1="326" x2="311" y1="425" y2="430" stroke="black"/>
            <line clip-path="url(#clipPath65)" fill="none" x1="311" x2="326" y1="430" y2="435" stroke="black"/>
            <line clip-path="url(#clipPath58)" fill="none" x1="390" x2="530" y1="230" y2="230" stroke-dasharray="5,5,5,5,5,5,5,5,5,5" stroke="black"/>
            <text x="450" y="222" clip-path="url(#clipPath66)" fill="black" stroke-dasharray="5,5,5,5,5,5,5,5,5,5" stroke="none" xml:space="preserve">«import»</text>
            <line clip-path="url(#clipPath67)" fill="none" x1="515" x2="530" y1="235" y2="230" stroke="black"/>
            <line clip-path="url(#clipPath67)" fill="none" x1="530" x2="515" y1="230" y2="225" stroke="black"/>
            <line clip-path="url(#clipPath58)" fill="none" x1="131" x2="190" y1="510" y2="430" stroke-dasharray="5,5,5,5,5,5,5,5,5,5" stroke="black"/>
            <line clip-path="url(#clipPath68)" fill="none" x1="185" x2="190" y1="445" y2="430" stroke="black"/>
            <line clip-path="url(#clipPath68)" fill="none" x1="190" x2="177" y1="430" y2="439" stroke="black"/>
            <line clip-path="url(#clipPath58)" fill="none" x1="131" x2="190" y1="510" y2="510" stroke-dasharray="5,5,5,5,5,5,5,5,5,5" stroke="black"/>
            <line clip-path="url(#clipPath69)" fill="none" x1="175" x2="190" y1="515" y2="510" stroke="black"/>
            <line clip-path="url(#clipPath69)" fill="none" x1="190" x2="175" y1="510" y2="505" stroke="black"/>
            <line clip-path="url(#clipPath58)" fill="none" x1="131" x2="190" y1="510" y2="590" stroke-dasharray="5,5,5,5,5,5,5,5,5,5" stroke="black"/>
            <line clip-path="url(#clipPath70)" fill="none" x1="177" x2="190" y1="581" y2="590" stroke="black"/>
            <line clip-path="url(#clipPath70)" fill="none" x1="190" x2="185" y1="590" y2="575" stroke="black"/>
            <line clip-path="url(#clipPath58)" fill="none" x1="530" x2="471" y1="510" y2="430" stroke-dasharray="5,5,5,5,5,5,5,5,5,5" stroke="black"/>
            <line clip-path="url(#clipPath71)" fill="none" x1="484" x2="471" y1="439" y2="430" stroke="black"/>
            <line clip-path="url(#clipPath71)" fill="none" x1="471" x2="476" y1="430" y2="445" stroke="black"/>
            <line clip-path="url(#clipPath58)" fill="none" x1="590" x2="590" y1="210" y2="70" stroke="black"/>
            <line clip-path="url(#clipPath58)" fill="none" x1="590" x2="390" y1="70" y2="70" stroke="black"/>
            <polygon points=" 390 70 400 62 400 78" clip-path="url(#clipPath72)" stroke="none"/>
            <polygon fill="none" clip-path="url(#clipPath72)" points=" 390 70 400 62 400 78" stroke="black"/>
        </g>
    </g>
</svg>
