<?xml version="1.0" encoding="UTF-8"?><svg xmlns="http://www.w3.org/2000/svg" xmlns:xlink="http://www.w3.org/1999/xlink" stroke-dasharray="none" shape-rendering="auto" font-family="'Dialog'" width="661" text-rendering="auto" fill-opacity="1" contentScriptType="text/ecmascript" color-interpolation="auto" color-rendering="auto" preserveAspectRatio="xMidYMid meet" font-size="12px" viewBox="0 0 661 681" fill="black" stroke="black" image-rendering="auto" stroke-miterlimit="10" zoomAndPan="magnify" version="1.0" stroke-linecap="square" stroke-linejoin="miter" contentStyleType="text/css" font-style="normal" height="681" stroke-width="1" stroke-dashoffset="0" font-weight="normal" stroke-opacity="1">
    <!--Generated by the Batik Graphics2D SVG Generator-->
    <defs id="genericDefs"/>
    <g>
        <defs id="defs1">
            <linearGradient x1="270" x2="390" y1="170" gradientUnits="userSpaceOnUse" y2="170" xlink:type="simple" xlink:actuate="onLoad" id="linearGradient1" xlink:show="other" spreadMethod="pad">
                <stop stop-opacity="1" stop-color="white" offset="0%"/>
                <stop stop-opacity="1" stop-color="rgb(158,213,158)" offset="100%"/>
            </linearGradient>
            <linearGradient x1="190" x2="310" y1="330" gradientUnits="userSpaceOnUse" y2="330" xlink:type="simple" xlink:actuate="onLoad" id="linearGradient2" xlink:show="other" spreadMethod="pad">
                <stop stop-opacity="1" stop-color="white" offset="0%"/>
                <stop stop-opacity="1" stop-color="rgb(255,224,192)" offset="100%"/>
            </linearGradient>
            <linearGradient x1="350" x2="471" y1="330" gradientUnits="userSpaceOnUse" y2="330" xlink:type="simple" xlink:actuate="onLoad" id="linearGradient3" xlink:show="other" spreadMethod="pad">
                <stop stop-opacity="1" stop-color="white" offset="0%"/>
                <stop stop-opacity="1" stop-color="rgb(255,224,192)" offset="100%"/>
            </linearGradient>
            <linearGradient x1="250" x2="411" y1="610" gradientUnits="userSpaceOnUse" y2="610" xlink:type="simple" xlink:actuate="onLoad" id="linearGradient4" xlink:show="other" spreadMethod="pad">
                <stop stop-opacity="1" stop-color="white" offset="0%"/>
                <stop stop-opacity="1" stop-color="rgb(255,229,153)" offset="100%"/>
            </linearGradient>
            <linearGradient x1="270" x2="390" y1="10" gradientUnits="userSpaceOnUse" y2="10" xlink:type="simple" xlink:actuate="onLoad" id="linearGradient5" xlink:show="other" spreadMethod="pad">
                <stop stop-opacity="1" stop-color="white" offset="0%"/>
                <stop stop-opacity="1" stop-color="rgb(175,215,255)" offset="100%"/>
            </linearGradient>
            <linearGradient x1="110" x2="231" y1="430" gradientUnits="userSpaceOnUse" y2="430" xlink:type="simple" xlink:actuate="onLoad" id="linearGradient6" xlink:show="other" spreadMethod="pad">
                <stop stop-opacity="1" stop-color="white" offset="0%"/>
                <stop stop-opacity="1" stop-color="rgb(215,175,215)" offset="100%"/>
            </linearGradient>
            <linearGradient x1="430" x2="551" y1="430" gradientUnits="userSpaceOnUse" y2="430" xlink:type="simple" xlink:actuate="onLoad" id="linearGradient7" xlink:show="other" spreadMethod="pad">
                <stop stop-opacity="1" stop-color="white" offset="0%"/>
                <stop stop-opacity="1" stop-color="rgb(215,175,215)" offset="100%"/>
            </linearGradient>
            <linearGradient x1="10" x2="131" y1="350" gradientUnits="userSpaceOnUse" y2="350" xlink:type="simple" xlink:actuate="onLoad" id="linearGradient8" xlink:show="other" spreadMethod="pad">
                <stop stop-opacity="1" stop-color="white" offset="0%"/>
                <stop stop-opacity="1" stop-color="rgb(230,227,229)" offset="100%"/>
            </linearGradient>
            <linearGradient x1="530" x2="651" y1="350" gradientUnits="userSpaceOnUse" y2="350" xlink:type="simple" xlink:actuate="onLoad" id="linearGradient9" xlink:show="other" spreadMethod="pad">
                <stop stop-opacity="1" stop-color="white" offset="0%"/>
                <stop stop-opacity="1" stop-color="rgb(230,227,229)" offset="100%"/>
            </linearGradient>
            <linearGradient x1="150" x2="271" y1="510" gradientUnits="userSpaceOnUse" y2="510" xlink:type="simple" xlink:actuate="onLoad" id="linearGradient10" xlink:show="other" spreadMethod="pad">
                <stop stop-opacity="1" stop-color="white" offset="0%"/>
                <stop stop-opacity="1" stop-color="rgb(215,175,215)" offset="100%"/>
            </linearGradient>
            <linearGradient x1="390" x2="511" y1="510" gradientUnits="userSpaceOnUse" y2="510" xlink:type="simple" xlink:actuate="onLoad" id="linearGradient11" xlink:show="other" spreadMethod="pad">
                <stop stop-opacity="1" stop-color="white" offset="0%"/>
                <stop stop-opacity="1" stop-color="rgb(215,175,215)" offset="100%"/>
            </linearGradient>
            <clipPath clipPathUnits="userSpaceOnUse" id="clipPath1">
                <path d="M270 170 L270 270 L389 270 L389 170 Z"/>
            </clipPath>
            <clipPath clipPathUnits="userSpaceOnUse" id="clipPath2">
                <path d="M305 172 L357 172 L357 189 L305 189 L305 172 Z"/>
            </clipPath>
            <clipPath clipPathUnits="userSpaceOnUse" id="clipPath3">
                <path d="M308 188 L353 188 L353 205 L308 205 L308 188 Z"/>
            </clipPath>
            <clipPath clipPathUnits="userSpaceOnUse" id="clipPath4">
                <path d="M275 206 L314 206 L314 223 L275 223 L275 206 Z"/>
            </clipPath>
            <clipPath clipPathUnits="userSpaceOnUse" id="clipPath5">
                <path d="M275 221 L357 221 L357 238 L275 238 L275 221 Z"/>
            </clipPath>
            <clipPath clipPathUnits="userSpaceOnUse" id="clipPath6">
                <path d="M275 236 L341 236 L341 253 L275 253 L275 236 Z"/>
            </clipPath>
            <clipPath clipPathUnits="userSpaceOnUse" id="clipPath7">
                <path d="M275 251 L337 251 L337 268 L275 268 L275 251 Z"/>
            </clipPath>
            <clipPath clipPathUnits="userSpaceOnUse" id="clipPath8">
                <path d="M270 204 L391 204 L391 272 L270 272 L270 204 Z"/>
            </clipPath>
            <clipPath clipPathUnits="userSpaceOnUse" id="clipPath9">
                <path d="M269 169 L391 169 L391 272 L269 272 L269 169 Z"/>
            </clipPath>
            <clipPath clipPathUnits="userSpaceOnUse" id="clipPath10">
                <path d="M190 330 L190 390 L309 390 L309 330 Z"/>
            </clipPath>
            <clipPath clipPathUnits="userSpaceOnUse" id="clipPath11">
                <path d="M211 332 L291 332 L291 349 L211 349 L211 332 Z"/>
            </clipPath>
            <clipPath clipPathUnits="userSpaceOnUse" id="clipPath12">
                <path d="M208 348 L293 348 L293 365 L208 365 L208 348 Z"/>
            </clipPath>
            <clipPath clipPathUnits="userSpaceOnUse" id="clipPath13">
                <path d="M195 366 L277 366 L277 383 L195 383 L195 366 Z"/>
            </clipPath>
            <clipPath clipPathUnits="userSpaceOnUse" id="clipPath14">
                <path d="M190 364 L311 364 L311 392 L190 392 L190 364 Z"/>
            </clipPath>
            <clipPath clipPathUnits="userSpaceOnUse" id="clipPath15">
                <path d="M189 329 L311 329 L311 392 L189 392 L189 329 Z"/>
            </clipPath>
            <clipPath clipPathUnits="userSpaceOnUse" id="clipPath16">
                <path d="M350 330 L350 390 L470 390 L470 330 Z"/>
            </clipPath>
            <clipPath clipPathUnits="userSpaceOnUse" id="clipPath17">
                <path d="M371 332 L451 332 L451 349 L371 349 L371 332 Z"/>
            </clipPath>
            <clipPath clipPathUnits="userSpaceOnUse" id="clipPath18">
                <path d="M355 348 L466 348 L466 365 L355 365 L355 348 Z"/>
            </clipPath>
            <clipPath clipPathUnits="userSpaceOnUse" id="clipPath19">
                <path d="M355 366 L437 366 L437 383 L355 383 L355 366 Z"/>
            </clipPath>
            <clipPath clipPathUnits="userSpaceOnUse" id="clipPath20">
                <path d="M350 364 L472 364 L472 392 L350 392 L350 364 Z"/>
            </clipPath>
            <clipPath clipPathUnits="userSpaceOnUse" id="clipPath21">
                <path d="M349 329 L472 329 L472 392 L349 392 L349 329 Z"/>
            </clipPath>
            <clipPath clipPathUnits="userSpaceOnUse" id="clipPath22">
                <path d="M250 610 L250 670 L410 670 L410 610 Z"/>
            </clipPath>
            <clipPath clipPathUnits="userSpaceOnUse" id="clipPath23">
                <path d="M312 612 L351 612 L351 629 L312 629 L312 612 Z"/>
            </clipPath>
            <clipPath clipPathUnits="userSpaceOnUse" id="clipPath24">
                <path d="M295 628 L368 628 L368 645 L295 645 L295 628 Z"/>
            </clipPath>
            <clipPath clipPathUnits="userSpaceOnUse" id="clipPath25">
                <path d="M255 646 L400 646 L400 663 L255 663 L255 646 Z"/>
            </clipPath>
            <clipPath clipPathUnits="userSpaceOnUse" id="clipPath26">
                <path d="M250 644 L412 644 L412 672 L250 672 L250 644 Z"/>
            </clipPath>
            <clipPath clipPathUnits="userSpaceOnUse" id="clipPath27">
                <path d="M249 609 L412 609 L412 672 L249 672 L249 609 Z"/>
            </clipPath>
            <clipPath clipPathUnits="userSpaceOnUse" id="clipPath28">
                <path d="M270 10 L270 130 L389 130 L389 10 Z"/>
            </clipPath>
            <clipPath clipPathUnits="userSpaceOnUse" id="clipPath29">
                <path d="M297 12 L365 12 L365 29 L297 29 L297 12 Z"/>
            </clipPath>
            <clipPath clipPathUnits="userSpaceOnUse" id="clipPath30">
                <path d="M312 28 L350 28 L350 45 L312 45 L312 28 Z"/>
            </clipPath>
            <clipPath clipPathUnits="userSpaceOnUse" id="clipPath31">
                <path d="M275 46 L352 46 L352 63 L275 63 L275 46 Z"/>
            </clipPath>
            <clipPath clipPathUnits="userSpaceOnUse" id="clipPath32">
                <path d="M275 61 L345 61 L345 78 L275 78 L275 61 Z"/>
            </clipPath>
            <clipPath clipPathUnits="userSpaceOnUse" id="clipPath33">
                <path d="M275 76 L332 76 L332 93 L275 93 L275 76 Z"/>
            </clipPath>
            <clipPath clipPathUnits="userSpaceOnUse" id="clipPath34">
                <path d="M275 91 L323 91 L323 108 L275 108 L275 91 Z"/>
            </clipPath>
            <clipPath clipPathUnits="userSpaceOnUse" id="clipPath35">
                <path d="M275 106 L323 106 L323 123 L275 123 L275 106 Z"/>
            </clipPath>
            <clipPath clipPathUnits="userSpaceOnUse" id="clipPath36">
                <path d="M270 44 L391 44 L391 132 L270 132 L270 44 Z"/>
            </clipPath>
            <clipPath clipPathUnits="userSpaceOnUse" id="clipPath37">
                <path d="M269 9 L391 9 L391 132 L269 132 L269 9 Z"/>
            </clipPath>
            <clipPath clipPathUnits="userSpaceOnUse" id="clipPath38">
                <path d="M110 430 L110 470 L230 470 L230 430 Z"/>
            </clipPath>
            <clipPath clipPathUnits="userSpaceOnUse" id="clipPath39">
                <path d="M144 434 L198 434 L198 451 L144 451 L144 434 Z"/>
            </clipPath>
            <clipPath clipPathUnits="userSpaceOnUse" id="clipPath40">
                <path d="M153 450 L189 450 L189 467 L153 467 L153 450 Z"/>
            </clipPath>
            <clipPath clipPathUnits="userSpaceOnUse" id="clipPath41">
                <path d="M109 429 L232 429 L232 472 L109 472 L109 429 Z"/>
            </clipPath>
            <clipPath clipPathUnits="userSpaceOnUse" id="clipPath42">
                <path d="M430 430 L430 470 L550 470 L550 430 Z"/>
            </clipPath>
            <clipPath clipPathUnits="userSpaceOnUse" id="clipPath43">
                <path d="M464 434 L518 434 L518 451 L464 451 L464 434 Z"/>
            </clipPath>
            <clipPath clipPathUnits="userSpaceOnUse" id="clipPath44">
                <path d="M435 450 L547 450 L547 467 L435 467 L435 450 Z"/>
            </clipPath>
            <clipPath clipPathUnits="userSpaceOnUse" id="clipPath45">
                <path d="M429 429 L552 429 L552 472 L429 472 L429 429 Z"/>
            </clipPath>
            <clipPath clipPathUnits="userSpaceOnUse" id="clipPath46">
                <path d="M10 350 L10 390 L130 390 L130 350 Z"/>
            </clipPath>
            <clipPath clipPathUnits="userSpaceOnUse" id="clipPath47">
                <path d="M44 354 L99 354 L99 371 L44 371 L44 354 Z"/>
            </clipPath>
            <clipPath clipPathUnits="userSpaceOnUse" id="clipPath48">
                <path d="M23 370 L119 370 L119 387 L23 387 L23 370 Z"/>
            </clipPath>
            <clipPath clipPathUnits="userSpaceOnUse" id="clipPath49">
                <path d="M9 349 L132 349 L132 392 L9 392 L9 349 Z"/>
            </clipPath>
            <clipPath clipPathUnits="userSpaceOnUse" id="clipPath50">
                <path d="M530 350 L530 390 L650 390 L650 350 Z"/>
            </clipPath>
            <clipPath clipPathUnits="userSpaceOnUse" id="clipPath51">
                <path d="M564 354 L619 354 L619 371 L564 371 L564 354 Z"/>
            </clipPath>
            <clipPath clipPathUnits="userSpaceOnUse" id="clipPath52">
                <path d="M536 370 L647 370 L647 387 L536 387 L536 370 Z"/>
            </clipPath>
            <clipPath clipPathUnits="userSpaceOnUse" id="clipPath53">
                <path d="M529 349 L652 349 L652 392 L529 392 L529 349 Z"/>
            </clipPath>
            <clipPath clipPathUnits="userSpaceOnUse" id="clipPath54">
                <path d="M150 510 L150 550 L270 550 L270 510 Z"/>
            </clipPath>
            <clipPath clipPathUnits="userSpaceOnUse" id="clipPath55">
                <path d="M184 514 L238 514 L238 531 L184 531 L184 514 Z"/>
            </clipPath>
            <clipPath clipPathUnits="userSpaceOnUse" id="clipPath56">
                <path d="M196 530 L227 530 L227 547 L196 547 L196 530 Z"/>
            </clipPath>
            <clipPath clipPathUnits="userSpaceOnUse" id="clipPath57">
                <path d="M149 509 L272 509 L272 552 L149 552 L149 509 Z"/>
            </clipPath>
            <clipPath clipPathUnits="userSpaceOnUse" id="clipPath58">
                <path d="M390 510 L390 550 L510 550 L510 510 Z"/>
            </clipPath>
            <clipPath clipPathUnits="userSpaceOnUse" id="clipPath59">
                <path d="M424 514 L478 514 L478 531 L424 531 L424 514 Z"/>
            </clipPath>
            <clipPath clipPathUnits="userSpaceOnUse" id="clipPath60">
                <path d="M398 530 L505 530 L505 547 L398 547 L398 530 Z"/>
            </clipPath>
            <clipPath clipPathUnits="userSpaceOnUse" id="clipPath61">
                <path d="M389 509 L512 509 L512 552 L389 552 L389 509 Z"/>
            </clipPath>
            <clipPath clipPathUnits="userSpaceOnUse" id="clipPath62">
                <path d="M-1 -1 L662 -1 L662 682 L-1 682 L-1 -1 Z"/>
            </clipPath>
            <clipPath clipPathUnits="userSpaceOnUse" id="clipPath63">
                <path d="M321 270 L340 270 L340 283 L321 283 L321 270 Z"/>
            </clipPath>
            <clipPath clipPathUnits="userSpaceOnUse" id="clipPath64">
                <path d="M321 130 L340 130 L340 143 L321 143 L321 130 Z"/>
            </clipPath>
            <clipPath clipPathUnits="userSpaceOnUse" id="clipPath65">
                <path d="M201 390 L220 390 L220 403 L201 403 L201 390 Z"/>
            </clipPath>
            <clipPath clipPathUnits="userSpaceOnUse" id="clipPath66">
                <path d="M441 390 L460 390 L460 403 L441 403 L441 390 Z"/>
            </clipPath>
            <clipPath clipPathUnits="userSpaceOnUse" id="clipPath67">
                <path d="M259 61 L272 61 L272 80 L259 80 L259 61 Z"/>
            </clipPath>
            <clipPath clipPathUnits="userSpaceOnUse" id="clipPath68">
                <path d="M230 444 L248 444 L248 457 L230 457 L230 444 Z"/>
            </clipPath>
            <clipPath clipPathUnits="userSpaceOnUse" id="clipPath69">
                <path d="M94 444 L112 444 L112 457 L94 457 L94 444 Z"/>
            </clipPath>
            <clipPath clipPathUnits="userSpaceOnUse" id="clipPath70">
                <path d="M134 524 L152 524 L152 537 L134 537 L134 524 Z"/>
            </clipPath>
            <clipPath clipPathUnits="userSpaceOnUse" id="clipPath71">
                <path d="M550 444 L568 444 L568 457 L550 457 L550 444 Z"/>
            </clipPath>
            <clipPath clipPathUnits="userSpaceOnUse" id="clipPath72">
                <path d="M510 524 L528 524 L528 537 L510 537 L510 524 Z"/>
            </clipPath>
            <clipPath clipPathUnits="userSpaceOnUse" id="clipPath73">
                <path d="M270 524 L288 524 L288 537 L270 537 L270 524 Z"/>
            </clipPath>
            <clipPath clipPathUnits="userSpaceOnUse" id="clipPath74">
                <path d="M241 390 L260 390 L260 403 L241 403 L241 390 Z"/>
            </clipPath>
            <clipPath clipPathUnits="userSpaceOnUse" id="clipPath75">
                <path d="M401 390 L420 390 L420 403 L401 403 L401 390 Z"/>
            </clipPath>
            <clipPath clipPathUnits="userSpaceOnUse" id="clipPath76">
                <path d="M389 61 L402 61 L402 80 L389 80 L389 61 Z"/>
            </clipPath>
            <clipPath clipPathUnits="userSpaceOnUse" id="clipPath77">
                <path d="M204 550 L217 550 L217 568 L204 568 L204 550 Z"/>
            </clipPath>
            <clipPath clipPathUnits="userSpaceOnUse" id="clipPath78">
                <path d="M444 550 L457 550 L457 568 L444 568 L444 550 Z"/>
            </clipPath>
            <clipPath clipPathUnits="userSpaceOnUse" id="clipPath79">
                <path d="M124 470 L137 470 L137 488 L124 488 L124 470 Z"/>
            </clipPath>
            <clipPath clipPathUnits="userSpaceOnUse" id="clipPath80">
                <path d="M524 470 L537 470 L537 488 L524 488 L524 470 Z"/>
            </clipPath>
        </defs>
        <g font-size="14px" fill="url(#linearGradient1)" font-family="'Roboto'" stroke-linejoin="round" stroke="url(#linearGradient1)" stroke-width="0" stroke-miterlimit="0">
            <rect x="270" width="120" height="101" y="170" clip-path="url(#clipPath1)" stroke="none"/>
            <text x="306" font-size="12px" y="185" clip-path="url(#clipPath2)" fill="black" stroke="none" xml:space="preserve">«Project»</text>
            <text x="309" font-size="12px" y="201" clip-path="url(#clipPath3)" fill="black" stroke="none" xml:space="preserve">umayux</text>
            <text x="276" font-size="12px" y="219" clip-path="url(#clipPath4)" fill="black" stroke="none" xml:space="preserve">  name</text>
            <text x="276" font-size="12px" y="234" clip-path="url(#clipPath5)" fill="black" stroke="none" xml:space="preserve">  inceptionYear</text>
            <text x="276" font-size="12px" y="249" clip-path="url(#clipPath6)" fill="black" stroke="none" xml:space="preserve">  developers</text>
            <text x="276" font-size="12px" y="264" clip-path="url(#clipPath7)" fill="black" stroke="none" xml:space="preserve">  properties</text>
        </g>
        <g font-size="14px" stroke-width="1.1" font-family="'Roboto'" stroke-linecap="butt">
            <line y2="205" fill="none" x1="270" clip-path="url(#clipPath8)" x2="390" y1="205"/>
            <rect x="270" y="170" clip-path="url(#clipPath9)" fill="none" width="119" rx="0" ry="0" height="100"/>
            <rect x="190" y="330" clip-path="url(#clipPath10)" fill="url(#linearGradient2)" width="120" height="61" stroke="none"/>
            <text x="212" xml:space="preserve" font-size="12px" y="345" clip-path="url(#clipPath11)" stroke="none">«ModuleType»</text>
            <text x="209" xml:space="preserve" font-size="12px" y="361" clip-path="url(#clipPath12)" stroke="none">umayux.bundle</text>
            <text x="196" xml:space="preserve" font-size="12px" y="379" clip-path="url(#clipPath13)" stroke="none">  dependencies</text>
            <line y2="365" fill="none" x1="190" clip-path="url(#clipPath14)" x2="310" y1="365"/>
            <rect x="190" y="330" clip-path="url(#clipPath15)" fill="none" width="119" rx="0" ry="0" height="60"/>
            <rect x="350" y="330" clip-path="url(#clipPath16)" fill="url(#linearGradient3)" width="121" height="61" stroke="none"/>
            <text x="372" xml:space="preserve" font-size="12px" y="345" clip-path="url(#clipPath17)" stroke="none">«ModuleType»</text>
            <text x="356" xml:space="preserve" font-size="12px" y="361" clip-path="url(#clipPath18)" stroke="none">umayux.repository...</text>
            <text x="356" xml:space="preserve" font-size="12px" y="379" clip-path="url(#clipPath19)" stroke="none">  dependencies</text>
            <line y2="365" fill="none" x1="350" clip-path="url(#clipPath20)" x2="471" y1="365"/>
            <rect x="350" y="330" clip-path="url(#clipPath21)" fill="none" width="120" rx="0" ry="0" height="60"/>
            <rect x="250" y="610" clip-path="url(#clipPath22)" fill="url(#linearGradient4)" width="161" height="61" stroke="none"/>
            <text x="313" xml:space="preserve" font-size="12px" y="625" clip-path="url(#clipPath23)" stroke="none">«BOM»</text>
            <text x="296" xml:space="preserve" font-size="12px" y="641" clip-path="url(#clipPath24)" stroke="none">umayux.bom</text>
            <text x="256" xml:space="preserve" font-size="12px" y="659" clip-path="url(#clipPath25)" stroke="none">  dependencyManagement</text>
            <line y2="645" fill="none" x1="250" clip-path="url(#clipPath26)" x2="411" y1="645"/>
            <rect x="250" y="610" clip-path="url(#clipPath27)" fill="none" width="160" rx="0" ry="0" height="60"/>
            <rect x="270" y="10" clip-path="url(#clipPath28)" fill="url(#linearGradient5)" width="120" height="121" stroke="none"/>
            <text x="298" xml:space="preserve" font-size="12px" y="25" clip-path="url(#clipPath29)" stroke="none">«Corporate»</text>
            <text x="313" xml:space="preserve" font-size="12px" y="41" clip-path="url(#clipPath30)" stroke="none">tautua</text>
            <text x="276" xml:space="preserve" font-size="12px" y="59" clip-path="url(#clipPath31)" stroke="none">  organization</text>
            <text x="276" xml:space="preserve" font-size="12px" y="74" clip-path="url(#clipPath32)" stroke="none">  distribution</text>
            <text x="276" xml:space="preserve" font-size="12px" y="89" clip-path="url(#clipPath33)" stroke="none">  reporting</text>
            <text x="276" xml:space="preserve" font-size="12px" y="104" clip-path="url(#clipPath34)" stroke="none">  plugins</text>
            <text x="276" xml:space="preserve" font-size="12px" y="119" clip-path="url(#clipPath35)" stroke="none">  profiles</text>
            <line y2="45" fill="none" x1="270" clip-path="url(#clipPath36)" x2="390" y1="45"/>
            <rect x="270" y="10" clip-path="url(#clipPath37)" fill="none" width="119" rx="0" ry="0" height="120"/>
            <rect x="110" y="430" clip-path="url(#clipPath38)" fill="url(#linearGradient6)" width="121" height="41" stroke="none"/>
            <text x="145" xml:space="preserve" font-size="12px" y="447" clip-path="url(#clipPath39)" stroke="none">«Module»</text>
            <text x="154" xml:space="preserve" font-size="12px" y="463" clip-path="url(#clipPath40)" stroke="none">actors</text>
            <rect x="110" y="430" clip-path="url(#clipPath41)" fill="none" width="120" rx="0" ry="0" height="40"/>
            <rect x="430" y="430" clip-path="url(#clipPath42)" fill="url(#linearGradient7)" width="121" height="41" stroke="none"/>
            <text x="465" xml:space="preserve" font-size="12px" y="447" clip-path="url(#clipPath43)" stroke="none">«Module»</text>
            <text x="436" xml:space="preserve" font-size="12px" y="463" clip-path="url(#clipPath44)" stroke="none">actors.repository.jdo</text>
            <rect x="430" y="430" clip-path="url(#clipPath45)" fill="none" width="120" rx="0" ry="0" height="40"/>
            <rect x="10" y="350" clip-path="url(#clipPath46)" fill="url(#linearGradient8)" width="121" height="41" stroke="none"/>
            <text x="45" xml:space="preserve" font-size="12px" y="367" clip-path="url(#clipPath47)" stroke="none">«Reactor»</text>
            <text x="24" xml:space="preserve" font-size="12px" y="383" clip-path="url(#clipPath48)" stroke="none">umayux.domains</text>
            <rect x="10" y="350" clip-path="url(#clipPath49)" fill="none" width="120" rx="0" ry="0" height="40"/>
            <rect x="530" y="350" clip-path="url(#clipPath50)" fill="url(#linearGradient9)" width="121" height="41" stroke="none"/>
            <text x="565" xml:space="preserve" font-size="12px" y="367" clip-path="url(#clipPath51)" stroke="none">«Reactor»</text>
            <text x="537" xml:space="preserve" font-size="12px" y="383" clip-path="url(#clipPath52)" stroke="none">umayux.repositories</text>
            <rect x="530" y="350" clip-path="url(#clipPath53)" fill="none" width="120" rx="0" ry="0" height="40"/>
            <rect x="150" y="510" clip-path="url(#clipPath54)" fill="url(#linearGradient10)" width="121" height="41" stroke="none"/>
            <text x="185" xml:space="preserve" font-size="12px" y="527" clip-path="url(#clipPath55)" stroke="none">«Module»</text>
            <text x="197" xml:space="preserve" font-size="12px" y="543" clip-path="url(#clipPath56)" stroke="none">users</text>
            <rect x="150" y="510" clip-path="url(#clipPath57)" fill="none" width="120" rx="0" ry="0" height="40"/>
            <rect x="390" y="510" clip-path="url(#clipPath58)" fill="url(#linearGradient11)" width="121" height="41" stroke="none"/>
            <text x="425" xml:space="preserve" font-size="12px" y="527" clip-path="url(#clipPath59)" stroke="none">«Module»</text>
            <text x="399" xml:space="preserve" font-size="12px" y="543" clip-path="url(#clipPath60)" stroke="none">users.repository.jdo</text>
            <rect x="390" y="510" clip-path="url(#clipPath61)" fill="none" width="120" rx="0" ry="0" height="40"/>
            <line clip-path="url(#clipPath62)" fill="none" text-rendering="optimizeLegibility" x1="250" x2="250" y1="330" y2="310"/>
            <line clip-path="url(#clipPath62)" fill="none" text-rendering="optimizeLegibility" x1="250" x2="330" y1="310" y2="310"/>
            <line clip-path="url(#clipPath62)" fill="none" text-rendering="optimizeLegibility" x1="330" x2="330" y1="310" y2="271"/>
        </g>
        <g fill="white" text-rendering="optimizeLegibility" stroke-width="1.1" font-family="'Roboto'" stroke-linecap="butt" stroke="white">
            <polygon points=" 330 271 338 281 322 281" stroke="none" clip-path="url(#clipPath63)"/>
            <polygon fill="none" clip-path="url(#clipPath63)" points=" 330 271 338 281 322 281" stroke="black"/>
            <line clip-path="url(#clipPath62)" fill="none" x1="410" x2="410" y1="330" y2="310" stroke="black"/>
            <line clip-path="url(#clipPath62)" fill="none" x1="410" x2="330" y1="310" y2="310" stroke="black"/>
            <line clip-path="url(#clipPath62)" fill="none" x1="330" x2="330" y1="310" y2="271" stroke="black"/>
            <polygon points=" 330 271 338 281 322 281" clip-path="url(#clipPath63)" stroke="none"/>
            <polygon fill="none" clip-path="url(#clipPath63)" points=" 330 271 338 281 322 281" stroke="black"/>
            <line clip-path="url(#clipPath62)" fill="none" x1="330" x2="330" y1="170" y2="131" stroke="black"/>
            <polygon points=" 330 131 338 141 322 141" clip-path="url(#clipPath64)" stroke="none"/>
            <polygon fill="none" clip-path="url(#clipPath64)" points=" 330 131 338 141 322 141" stroke="black"/>
            <line clip-path="url(#clipPath62)" fill="none" x1="210" x2="210" y1="430" y2="391" stroke="black"/>
            <polygon points=" 210 391 218 401 202 401" clip-path="url(#clipPath65)" stroke="none"/>
            <polygon fill="none" clip-path="url(#clipPath65)" points=" 210 391 218 401 202 401" stroke="black"/>
            <line clip-path="url(#clipPath62)" fill="none" x1="450" x2="450" y1="430" y2="391" stroke="black"/>
            <polygon points=" 450 391 458 401 442 401" clip-path="url(#clipPath66)" stroke="none"/>
            <polygon fill="none" clip-path="url(#clipPath66)" points=" 450 391 458 401 442 401" stroke="black"/>
            <line clip-path="url(#clipPath62)" fill="none" x1="70" x2="70" y1="350" y2="70" stroke="black"/>
            <line clip-path="url(#clipPath62)" fill="none" x1="70" x2="270" y1="70" y2="70" stroke="black"/>
            <polygon points=" 270 70 260 78 260 62" clip-path="url(#clipPath67)" stroke="none"/>
            <polygon fill="none" clip-path="url(#clipPath67)" points=" 270 70 260 78 260 62" stroke="black"/>
            <line clip-path="url(#clipPath62)" fill="none" x1="430" x2="231" y1="450" y2="450" stroke-dasharray="5,5,5,5,5,5,5,5,5,5" stroke="black"/>
            <line clip-path="url(#clipPath68)" fill="none" x1="246" x2="231" y1="445" y2="450" stroke="black"/>
            <line clip-path="url(#clipPath68)" fill="none" x1="231" x2="246" y1="450" y2="455" stroke="black"/>
            <line clip-path="url(#clipPath62)" fill="none" x1="70" x2="70" y1="391" y2="450" stroke-dasharray="5,5,5,5,5,5,5,5,5,5" stroke="black"/>
            <line clip-path="url(#clipPath62)" fill="none" x1="70" x2="110" y1="450" y2="450" stroke-dasharray="5,5,5,5,5,5,5,5,5,5" stroke="black"/>
            <line clip-path="url(#clipPath69)" fill="none" x1="95" x2="110" y1="455" y2="450" stroke="black"/>
            <line clip-path="url(#clipPath69)" fill="none" x1="110" x2="95" y1="450" y2="445" stroke="black"/>
            <line clip-path="url(#clipPath62)" fill="none" x1="70" x2="70" y1="391" y2="530" stroke-dasharray="5,5,5,5,5,5,5,5,5,5" stroke="black"/>
            <line clip-path="url(#clipPath62)" fill="none" x1="70" x2="150" y1="530" y2="530" stroke-dasharray="5,5,5,5,5,5,5,5,5,5" stroke="black"/>
            <line clip-path="url(#clipPath70)" fill="none" x1="135" x2="150" y1="535" y2="530" stroke="black"/>
            <line clip-path="url(#clipPath70)" fill="none" x1="150" x2="135" y1="530" y2="525" stroke="black"/>
            <line clip-path="url(#clipPath62)" fill="none" x1="590" x2="590" y1="391" y2="450" stroke-dasharray="5,5,5,5,5,5,5,5,5,5" stroke="black"/>
            <line clip-path="url(#clipPath62)" fill="none" x1="590" x2="551" y1="450" y2="450" stroke-dasharray="5,5,5,5,5,5,5,5,5,5" stroke="black"/>
            <line clip-path="url(#clipPath71)" fill="none" x1="566" x2="551" y1="445" y2="450" stroke="black"/>
            <line clip-path="url(#clipPath71)" fill="none" x1="551" x2="566" y1="450" y2="455" stroke="black"/>
            <line clip-path="url(#clipPath62)" fill="none" x1="330" x2="330" y1="610" y2="271" stroke="black"/>
            <polygon points=" 330 271 338 281 322 281" clip-path="url(#clipPath63)" stroke="none"/>
            <polygon fill="none" clip-path="url(#clipPath63)" points=" 330 271 338 281 322 281" stroke="black"/>
            <line clip-path="url(#clipPath62)" fill="none" x1="590" x2="590" y1="391" y2="530" stroke-dasharray="5,5,5,5,5,5,5,5,5,5" stroke="black"/>
            <line clip-path="url(#clipPath62)" fill="none" x1="590" x2="511" y1="530" y2="530" stroke-dasharray="5,5,5,5,5,5,5,5,5,5" stroke="black"/>
            <line clip-path="url(#clipPath72)" fill="none" x1="526" x2="511" y1="525" y2="530" stroke="black"/>
            <line clip-path="url(#clipPath72)" fill="none" x1="511" x2="526" y1="530" y2="535" stroke="black"/>
            <line clip-path="url(#clipPath62)" fill="none" x1="390" x2="271" y1="530" y2="530" stroke-dasharray="5,5,5,5,5,5,5,5,5,5" stroke="black"/>
            <line clip-path="url(#clipPath73)" fill="none" x1="286" x2="271" y1="525" y2="530" stroke="black"/>
            <line clip-path="url(#clipPath73)" fill="none" x1="271" x2="286" y1="530" y2="535" stroke="black"/>
            <line clip-path="url(#clipPath62)" fill="none" x1="250" x2="250" y1="510" y2="391" stroke="black"/>
            <polygon points=" 250 391 258 401 242 401" clip-path="url(#clipPath74)" stroke="none"/>
            <polygon fill="none" clip-path="url(#clipPath74)" points=" 250 391 258 401 242 401" stroke="black"/>
            <line clip-path="url(#clipPath62)" fill="none" x1="410" x2="410" y1="510" y2="391" stroke="black"/>
            <polygon points=" 410 391 418 401 402 401" clip-path="url(#clipPath75)" stroke="none"/>
            <polygon fill="none" clip-path="url(#clipPath75)" points=" 410 391 418 401 402 401" stroke="black"/>
            <line clip-path="url(#clipPath62)" fill="none" x1="590" x2="590" y1="350" y2="70" stroke="black"/>
            <line clip-path="url(#clipPath62)" fill="none" x1="590" x2="390" y1="70" y2="70" stroke="black"/>
            <polygon points=" 390 70 400 62 400 78" clip-path="url(#clipPath76)" stroke="none"/>
            <polygon fill="none" clip-path="url(#clipPath76)" points=" 390 70 400 62 400 78" stroke="black"/>
            <line clip-path="url(#clipPath62)" fill="none" x1="250" x2="210" y1="630" y2="630" stroke-dasharray="5,5,5,5,5,5,5,5,5,5" stroke="black"/>
            <line clip-path="url(#clipPath62)" fill="none" x1="210" x2="210" y1="630" y2="551" stroke-dasharray="5,5,5,5,5,5,5,5,5,5" stroke="black"/>
            <line clip-path="url(#clipPath77)" fill="none" x1="215" x2="210" y1="566" y2="551" stroke="black"/>
            <line clip-path="url(#clipPath77)" fill="none" x1="210" x2="205" y1="551" y2="566" stroke="black"/>
            <line clip-path="url(#clipPath62)" fill="none" x1="411" x2="450" y1="630" y2="630" stroke-dasharray="5,5,5,5,5,5,5,5,5,5" stroke="black"/>
            <line clip-path="url(#clipPath62)" fill="none" x1="450" x2="450" y1="630" y2="551" stroke-dasharray="5,5,5,5,5,5,5,5,5,5" stroke="black"/>
            <line clip-path="url(#clipPath78)" fill="none" x1="455" x2="450" y1="566" y2="551" stroke="black"/>
            <line clip-path="url(#clipPath78)" fill="none" x1="450" x2="445" y1="551" y2="566" stroke="black"/>
            <line clip-path="url(#clipPath62)" fill="none" x1="250" x2="130" y1="630" y2="630" stroke-dasharray="5,5,5,5,5,5,5,5,5,5" stroke="black"/>
            <line clip-path="url(#clipPath62)" fill="none" x1="130" x2="130" y1="630" y2="471" stroke-dasharray="5,5,5,5,5,5,5,5,5,5" stroke="black"/>
            <line clip-path="url(#clipPath79)" fill="none" x1="135" x2="130" y1="486" y2="471" stroke="black"/>
            <line clip-path="url(#clipPath79)" fill="none" x1="130" x2="125" y1="471" y2="486" stroke="black"/>
            <line clip-path="url(#clipPath62)" fill="none" x1="411" x2="530" y1="630" y2="630" stroke-dasharray="5,5,5,5,5,5,5,5,5,5" stroke="black"/>
            <line clip-path="url(#clipPath62)" fill="none" x1="530" x2="530" y1="630" y2="471" stroke-dasharray="5,5,5,5,5,5,5,5,5,5" stroke="black"/>
            <line clip-path="url(#clipPath80)" fill="none" x1="535" x2="530" y1="486" y2="471" stroke="black"/>
            <line clip-path="url(#clipPath80)" fill="none" x1="530" x2="525" y1="471" y2="486" stroke="black"/>
        </g>
    </g>
</svg>
