<?xml version="1.0" encoding="UTF-8"?><svg xmlns="http://www.w3.org/2000/svg" xmlns:xlink="http://www.w3.org/1999/xlink" stroke-dasharray="none" shape-rendering="auto" font-family="'Dialog'" width="501" text-rendering="auto" fill-opacity="1" contentScriptType="text/ecmascript" color-interpolation="auto" color-rendering="auto" preserveAspectRatio="xMidYMid meet" font-size="12px" viewBox="0 0 501 521" fill="black" stroke="black" image-rendering="auto" stroke-miterlimit="10" zoomAndPan="magnify" version="1.0" stroke-linecap="square" stroke-linejoin="miter" contentStyleType="text/css" font-style="normal" height="521" stroke-width="1" stroke-dashoffset="0" font-weight="normal" stroke-opacity="1">
    <!--Generated by the Batik Graphics2D SVG Generator-->
    <defs id="genericDefs"/>
    <g>
        <defs id="defs1">
            <linearGradient x1="190" x2="290" y1="70" gradientUnits="userSpaceOnUse" y2="70" xlink:type="simple" xlink:actuate="onLoad" id="linearGradient1" xlink:show="other" spreadMethod="pad">
                <stop stop-opacity="1" stop-color="white" offset="0%"/>
                <stop stop-opacity="1" stop-color="rgb(230,227,229)" offset="100%"/>
            </linearGradient>
            <linearGradient x1="370" x2="491" y1="350" gradientUnits="userSpaceOnUse" y2="350" xlink:type="simple" xlink:actuate="onLoad" id="linearGradient2" xlink:show="other" spreadMethod="pad">
                <stop stop-opacity="1" stop-color="white" offset="0%"/>
                <stop stop-opacity="1" stop-color="rgb(255,229,153)" offset="100%"/>
            </linearGradient>
            <linearGradient x1="370" x2="491" y1="290" gradientUnits="userSpaceOnUse" y2="290" xlink:type="simple" xlink:actuate="onLoad" id="linearGradient3" xlink:show="other" spreadMethod="pad">
                <stop stop-opacity="1" stop-color="white" offset="0%"/>
                <stop stop-opacity="1" stop-color="rgb(158,213,158)" offset="100%"/>
            </linearGradient>
            <linearGradient x1="10" x2="110" y1="210" gradientUnits="userSpaceOnUse" y2="210" xlink:type="simple" xlink:actuate="onLoad" id="linearGradient4" xlink:show="other" spreadMethod="pad">
                <stop stop-opacity="1" stop-color="white" offset="0%"/>
                <stop stop-opacity="1" stop-color="rgb(230,227,229)" offset="100%"/>
            </linearGradient>
            <linearGradient x1="190" x2="290" y1="210" gradientUnits="userSpaceOnUse" y2="210" xlink:type="simple" xlink:actuate="onLoad" id="linearGradient5" xlink:show="other" spreadMethod="pad">
                <stop stop-opacity="1" stop-color="white" offset="0%"/>
                <stop stop-opacity="1" stop-color="rgb(230,227,229)" offset="100%"/>
            </linearGradient>
            <linearGradient x1="190" x2="290" y1="350" gradientUnits="userSpaceOnUse" y2="350" xlink:type="simple" xlink:actuate="onLoad" id="linearGradient6" xlink:show="other" spreadMethod="pad">
                <stop stop-opacity="1" stop-color="white" offset="0%"/>
                <stop stop-opacity="1" stop-color="rgb(230,227,229)" offset="100%"/>
            </linearGradient>
            <linearGradient x1="370" x2="491" y1="410" gradientUnits="userSpaceOnUse" y2="410" xlink:type="simple" xlink:actuate="onLoad" id="linearGradient7" xlink:show="other" spreadMethod="pad">
                <stop stop-opacity="1" stop-color="white" offset="0%"/>
                <stop stop-opacity="1" stop-color="rgb(255,224,192)" offset="100%"/>
            </linearGradient>
            <linearGradient x1="370" x2="491" y1="470" gradientUnits="userSpaceOnUse" y2="470" xlink:type="simple" xlink:actuate="onLoad" id="linearGradient8" xlink:show="other" spreadMethod="pad">
                <stop stop-opacity="1" stop-color="white" offset="0%"/>
                <stop stop-opacity="1" stop-color="rgb(255,224,192)" offset="100%"/>
            </linearGradient>
            <linearGradient x1="370" x2="491" y1="10" gradientUnits="userSpaceOnUse" y2="10" xlink:type="simple" xlink:actuate="onLoad" id="linearGradient9" xlink:show="other" spreadMethod="pad">
                <stop stop-opacity="1" stop-color="white" offset="0%"/>
                <stop stop-opacity="1" stop-color="rgb(215,175,215)" offset="100%"/>
            </linearGradient>
            <linearGradient x1="370" x2="491" y1="70" gradientUnits="userSpaceOnUse" y2="70" xlink:type="simple" xlink:actuate="onLoad" id="linearGradient10" xlink:show="other" spreadMethod="pad">
                <stop stop-opacity="1" stop-color="white" offset="0%"/>
                <stop stop-opacity="1" stop-color="rgb(215,175,215)" offset="100%"/>
            </linearGradient>
            <linearGradient x1="370" x2="491" y1="150" gradientUnits="userSpaceOnUse" y2="150" xlink:type="simple" xlink:actuate="onLoad" id="linearGradient11" xlink:show="other" spreadMethod="pad">
                <stop stop-opacity="1" stop-color="white" offset="0%"/>
                <stop stop-opacity="1" stop-color="rgb(215,175,215)" offset="100%"/>
            </linearGradient>
            <linearGradient x1="370" x2="491" y1="210" gradientUnits="userSpaceOnUse" y2="210" xlink:type="simple" xlink:actuate="onLoad" id="linearGradient12" xlink:show="other" spreadMethod="pad">
                <stop stop-opacity="1" stop-color="white" offset="0%"/>
                <stop stop-opacity="1" stop-color="rgb(215,175,215)" offset="100%"/>
            </linearGradient>
            <clipPath clipPathUnits="userSpaceOnUse" id="clipPath1">
                <path d="M190 70 L190 110 L289 110 L289 70 Z"/>
            </clipPath>
            <clipPath clipPathUnits="userSpaceOnUse" id="clipPath2">
                <path d="M213 74 L268 74 L268 91 L213 91 L213 74 Z"/>
            </clipPath>
            <clipPath clipPathUnits="userSpaceOnUse" id="clipPath3">
                <path d="M216 90 L266 90 L266 107 L216 107 L216 90 Z"/>
            </clipPath>
            <clipPath clipPathUnits="userSpaceOnUse" id="clipPath4">
                <path d="M189 69 L291 69 L291 112 L189 112 L189 69 Z"/>
            </clipPath>
            <clipPath clipPathUnits="userSpaceOnUse" id="clipPath5">
                <path d="M370 350 L370 390 L490 390 L490 350 Z"/>
            </clipPath>
            <clipPath clipPathUnits="userSpaceOnUse" id="clipPath6">
                <path d="M412 354 L451 354 L451 371 L412 371 L412 354 Z"/>
            </clipPath>
            <clipPath clipPathUnits="userSpaceOnUse" id="clipPath7">
                <path d="M418 370 L445 370 L445 387 L418 387 L418 370 Z"/>
            </clipPath>
            <clipPath clipPathUnits="userSpaceOnUse" id="clipPath8">
                <path d="M369 349 L492 349 L492 392 L369 392 L369 349 Z"/>
            </clipPath>
            <clipPath clipPathUnits="userSpaceOnUse" id="clipPath9">
                <path d="M370 290 L370 330 L490 330 L490 290 Z"/>
            </clipPath>
            <clipPath clipPathUnits="userSpaceOnUse" id="clipPath10">
                <path d="M405 294 L457 294 L457 311 L405 311 L405 294 Z"/>
            </clipPath>
            <clipPath clipPathUnits="userSpaceOnUse" id="clipPath11">
                <path d="M412 310 L451 310 L451 327 L412 327 L412 310 Z"/>
            </clipPath>
            <clipPath clipPathUnits="userSpaceOnUse" id="clipPath12">
                <path d="M369 289 L492 289 L492 332 L369 332 L369 289 Z"/>
            </clipPath>
            <clipPath clipPathUnits="userSpaceOnUse" id="clipPath13">
                <path d="M10 210 L10 250 L109 250 L109 210 Z"/>
            </clipPath>
            <clipPath clipPathUnits="userSpaceOnUse" id="clipPath14">
                <path d="M33 214 L88 214 L88 231 L33 231 L33 214 Z"/>
            </clipPath>
            <clipPath clipPathUnits="userSpaceOnUse" id="clipPath15">
                <path d="M46 230 L76 230 L76 247 L46 247 L46 230 Z"/>
            </clipPath>
            <clipPath clipPathUnits="userSpaceOnUse" id="clipPath16">
                <path d="M9 209 L111 209 L111 252 L9 252 L9 209 Z"/>
            </clipPath>
            <clipPath clipPathUnits="userSpaceOnUse" id="clipPath17">
                <path d="M190 210 L190 250 L289 250 L289 210 Z"/>
            </clipPath>
            <clipPath clipPathUnits="userSpaceOnUse" id="clipPath18">
                <path d="M213 214 L268 214 L268 231 L213 231 L213 214 Z"/>
            </clipPath>
            <clipPath clipPathUnits="userSpaceOnUse" id="clipPath19">
                <path d="M208 230 L273 230 L273 247 L208 247 L208 230 Z"/>
            </clipPath>
            <clipPath clipPathUnits="userSpaceOnUse" id="clipPath20">
                <path d="M189 209 L291 209 L291 252 L189 252 L189 209 Z"/>
            </clipPath>
            <clipPath clipPathUnits="userSpaceOnUse" id="clipPath21">
                <path d="M190 350 L190 390 L289 390 L289 350 Z"/>
            </clipPath>
            <clipPath clipPathUnits="userSpaceOnUse" id="clipPath22">
                <path d="M213 354 L268 354 L268 371 L213 371 L213 354 Z"/>
            </clipPath>
            <clipPath clipPathUnits="userSpaceOnUse" id="clipPath23">
                <path d="M224 370 L257 370 L257 387 L224 387 L224 370 Z"/>
            </clipPath>
            <clipPath clipPathUnits="userSpaceOnUse" id="clipPath24">
                <path d="M189 349 L291 349 L291 392 L189 392 L189 349 Z"/>
            </clipPath>
            <clipPath clipPathUnits="userSpaceOnUse" id="clipPath25">
                <path d="M370 410 L370 450 L490 450 L490 410 Z"/>
            </clipPath>
            <clipPath clipPathUnits="userSpaceOnUse" id="clipPath26">
                <path d="M391 414 L471 414 L471 431 L391 431 L391 414 Z"/>
            </clipPath>
            <clipPath clipPathUnits="userSpaceOnUse" id="clipPath27">
                <path d="M412 430 L451 430 L451 447 L412 447 L412 430 Z"/>
            </clipPath>
            <clipPath clipPathUnits="userSpaceOnUse" id="clipPath28">
                <path d="M369 409 L492 409 L492 452 L369 452 L369 409 Z"/>
            </clipPath>
            <clipPath clipPathUnits="userSpaceOnUse" id="clipPath29">
                <path d="M370 470 L370 510 L490 510 L490 470 Z"/>
            </clipPath>
            <clipPath clipPathUnits="userSpaceOnUse" id="clipPath30">
                <path d="M391 474 L471 474 L471 491 L391 491 L391 474 Z"/>
            </clipPath>
            <clipPath clipPathUnits="userSpaceOnUse" id="clipPath31">
                <path d="M394 490 L469 490 L469 507 L394 507 L394 490 Z"/>
            </clipPath>
            <clipPath clipPathUnits="userSpaceOnUse" id="clipPath32">
                <path d="M369 469 L492 469 L492 512 L369 512 L369 469 Z"/>
            </clipPath>
            <clipPath clipPathUnits="userSpaceOnUse" id="clipPath33">
                <path d="M370 10 L370 50 L490 50 L490 10 Z"/>
            </clipPath>
            <clipPath clipPathUnits="userSpaceOnUse" id="clipPath34">
                <path d="M404 14 L458 14 L458 31 L404 31 L404 14 Z"/>
            </clipPath>
            <clipPath clipPathUnits="userSpaceOnUse" id="clipPath35">
                <path d="M413 30 L449 30 L449 47 L413 47 L413 30 Z"/>
            </clipPath>
            <clipPath clipPathUnits="userSpaceOnUse" id="clipPath36">
                <path d="M369 9 L492 9 L492 52 L369 52 L369 9 Z"/>
            </clipPath>
            <clipPath clipPathUnits="userSpaceOnUse" id="clipPath37">
                <path d="M370 70 L370 110 L490 110 L490 70 Z"/>
            </clipPath>
            <clipPath clipPathUnits="userSpaceOnUse" id="clipPath38">
                <path d="M404 74 L458 74 L458 91 L404 91 L404 74 Z"/>
            </clipPath>
            <clipPath clipPathUnits="userSpaceOnUse" id="clipPath39">
                <path d="M416 90 L447 90 L447 107 L416 107 L416 90 Z"/>
            </clipPath>
            <clipPath clipPathUnits="userSpaceOnUse" id="clipPath40">
                <path d="M369 69 L492 69 L492 112 L369 112 L369 69 Z"/>
            </clipPath>
            <clipPath clipPathUnits="userSpaceOnUse" id="clipPath41">
                <path d="M370 150 L370 190 L490 190 L490 150 Z"/>
            </clipPath>
            <clipPath clipPathUnits="userSpaceOnUse" id="clipPath42">
                <path d="M404 154 L458 154 L458 171 L404 171 L404 154 Z"/>
            </clipPath>
            <clipPath clipPathUnits="userSpaceOnUse" id="clipPath43">
                <path d="M375 170 L487 170 L487 187 L375 187 L375 170 Z"/>
            </clipPath>
            <clipPath clipPathUnits="userSpaceOnUse" id="clipPath44">
                <path d="M369 149 L492 149 L492 192 L369 192 L369 149 Z"/>
            </clipPath>
            <clipPath clipPathUnits="userSpaceOnUse" id="clipPath45">
                <path d="M370 210 L370 250 L490 250 L490 210 Z"/>
            </clipPath>
            <clipPath clipPathUnits="userSpaceOnUse" id="clipPath46">
                <path d="M404 214 L458 214 L458 231 L404 231 L404 214 Z"/>
            </clipPath>
            <clipPath clipPathUnits="userSpaceOnUse" id="clipPath47">
                <path d="M378 230 L485 230 L485 247 L378 247 L378 230 Z"/>
            </clipPath>
            <clipPath clipPathUnits="userSpaceOnUse" id="clipPath48">
                <path d="M369 209 L492 209 L492 252 L369 252 L369 209 Z"/>
            </clipPath>
            <clipPath clipPathUnits="userSpaceOnUse" id="clipPath49">
                <path d="M-1 -1 L502 -1 L502 522 L-1 522 L-1 -1 Z"/>
            </clipPath>
            <clipPath clipPathUnits="userSpaceOnUse" id="clipPath50">
                <path d="M174 224 L192 224 L192 237 L174 237 L174 224 Z"/>
            </clipPath>
            <clipPath clipPathUnits="userSpaceOnUse" id="clipPath51">
                <path d="M174 84 L192 84 L192 97 L174 97 L174 84 Z"/>
            </clipPath>
            <clipPath clipPathUnits="userSpaceOnUse" id="clipPath52">
                <path d="M174 364 L192 364 L192 377 L174 377 L174 364 Z"/>
            </clipPath>
            <clipPath clipPathUnits="userSpaceOnUse" id="clipPath53">
                <path d="M354 304 L372 304 L372 317 L354 317 L354 304 Z"/>
            </clipPath>
            <clipPath clipPathUnits="userSpaceOnUse" id="clipPath54">
                <path d="M354 364 L372 364 L372 377 L354 377 L354 364 Z"/>
            </clipPath>
            <clipPath clipPathUnits="userSpaceOnUse" id="clipPath55">
                <path d="M354 424 L372 424 L372 437 L354 437 L354 424 Z"/>
            </clipPath>
            <clipPath clipPathUnits="userSpaceOnUse" id="clipPath56">
                <path d="M354 484 L372 484 L372 497 L354 497 L354 484 Z"/>
            </clipPath>
            <clipPath clipPathUnits="userSpaceOnUse" id="clipPath57">
                <path d="M354 164 L372 164 L372 177 L354 177 L354 164 Z"/>
            </clipPath>
            <clipPath clipPathUnits="userSpaceOnUse" id="clipPath58">
                <path d="M354 224 L372 224 L372 237 L354 237 L354 224 Z"/>
            </clipPath>
            <clipPath clipPathUnits="userSpaceOnUse" id="clipPath59">
                <path d="M354 24 L372 24 L372 37 L354 37 L354 24 Z"/>
            </clipPath>
            <clipPath clipPathUnits="userSpaceOnUse" id="clipPath60">
                <path d="M354 84 L372 84 L372 97 L354 97 L354 84 Z"/>
            </clipPath>
        </defs>
        <g font-size="14px" fill="url(#linearGradient1)" font-family="'Roboto'" stroke-linejoin="round" stroke="url(#linearGradient1)" stroke-width="0" stroke-miterlimit="0">
            <rect x="190" width="100" height="41" y="70" clip-path="url(#clipPath1)" stroke="none"/>
            <text x="214" font-size="12px" y="87" clip-path="url(#clipPath2)" fill="black" stroke="none" xml:space="preserve">«Reactor»</text>
            <text x="217" font-size="12px" y="103" clip-path="url(#clipPath3)" fill="black" stroke="none" xml:space="preserve">domains</text>
        </g>
        <g font-size="14px" stroke-width="1.1" font-family="'Roboto'" stroke-linecap="butt">
            <rect x="190" y="70" clip-path="url(#clipPath4)" fill="none" width="99" rx="0" ry="0" height="40"/>
            <rect x="370" y="350" clip-path="url(#clipPath5)" fill="url(#linearGradient2)" width="121" height="41" stroke="none"/>
            <text x="413" xml:space="preserve" font-size="12px" y="367" clip-path="url(#clipPath6)" stroke="none">«BOM»</text>
            <text x="419" xml:space="preserve" font-size="12px" y="383" clip-path="url(#clipPath7)" stroke="none">bom</text>
            <rect x="370" y="350" clip-path="url(#clipPath8)" fill="none" width="120" rx="0" ry="0" height="40"/>
            <rect x="370" y="290" clip-path="url(#clipPath9)" fill="url(#linearGradient3)" width="121" height="41" stroke="none"/>
            <text x="406" xml:space="preserve" font-size="12px" y="307" clip-path="url(#clipPath10)" stroke="none">«Project»</text>
            <text x="413" xml:space="preserve" font-size="12px" y="323" clip-path="url(#clipPath11)" stroke="none">project</text>
            <rect x="370" y="290" clip-path="url(#clipPath12)" fill="none" width="120" rx="0" ry="0" height="40"/>
            <rect x="10" y="210" clip-path="url(#clipPath13)" fill="url(#linearGradient4)" width="100" height="41" stroke="none"/>
            <text x="34" xml:space="preserve" font-size="12px" y="227" clip-path="url(#clipPath14)" stroke="none">«Reactor»</text>
            <text x="47" xml:space="preserve" font-size="12px" y="243" clip-path="url(#clipPath15)" stroke="none">main</text>
            <rect x="10" y="210" clip-path="url(#clipPath16)" fill="none" width="99" rx="0" ry="0" height="40"/>
            <rect x="190" y="210" clip-path="url(#clipPath17)" fill="url(#linearGradient5)" width="100" height="41" stroke="none"/>
            <text x="214" xml:space="preserve" font-size="12px" y="227" clip-path="url(#clipPath18)" stroke="none">«Reactor»</text>
            <text x="209" xml:space="preserve" font-size="12px" y="243" clip-path="url(#clipPath19)" stroke="none">repositories</text>
            <rect x="190" y="210" clip-path="url(#clipPath20)" fill="none" width="99" rx="0" ry="0" height="40"/>
            <rect x="190" y="350" clip-path="url(#clipPath21)" fill="url(#linearGradient6)" width="100" height="41" stroke="none"/>
            <text x="214" xml:space="preserve" font-size="12px" y="367" clip-path="url(#clipPath22)" stroke="none">«Reactor»</text>
            <text x="225" xml:space="preserve" font-size="12px" y="383" clip-path="url(#clipPath23)" stroke="none">poms</text>
            <rect x="190" y="350" clip-path="url(#clipPath24)" fill="none" width="99" rx="0" ry="0" height="40"/>
            <rect x="370" y="410" clip-path="url(#clipPath25)" fill="url(#linearGradient7)" width="121" height="41" stroke="none"/>
            <text x="392" xml:space="preserve" font-size="12px" y="427" clip-path="url(#clipPath26)" stroke="none">«ModuleType»</text>
            <text x="413" xml:space="preserve" font-size="12px" y="443" clip-path="url(#clipPath27)" stroke="none">bundle</text>
            <rect x="370" y="410" clip-path="url(#clipPath28)" fill="none" width="120" rx="0" ry="0" height="40"/>
            <rect x="370" y="470" clip-path="url(#clipPath29)" fill="url(#linearGradient8)" width="121" height="41" stroke="none"/>
            <text x="392" xml:space="preserve" font-size="12px" y="487" clip-path="url(#clipPath30)" stroke="none">«ModuleType»</text>
            <text x="395" xml:space="preserve" font-size="12px" y="503" clip-path="url(#clipPath31)" stroke="none">repository.jdo</text>
            <rect x="370" y="470" clip-path="url(#clipPath32)" fill="none" width="120" rx="0" ry="0" height="40"/>
            <rect x="370" y="10" clip-path="url(#clipPath33)" fill="url(#linearGradient9)" width="121" height="41" stroke="none"/>
            <text x="405" xml:space="preserve" font-size="12px" y="27" clip-path="url(#clipPath34)" stroke="none">«Module»</text>
            <text x="414" xml:space="preserve" font-size="12px" y="43" clip-path="url(#clipPath35)" stroke="none">actors</text>
            <rect x="370" y="10" clip-path="url(#clipPath36)" fill="none" width="120" rx="0" ry="0" height="40"/>
            <rect x="370" y="70" clip-path="url(#clipPath37)" fill="url(#linearGradient10)" width="121" height="41" stroke="none"/>
            <text x="405" xml:space="preserve" font-size="12px" y="87" clip-path="url(#clipPath38)" stroke="none">«Module»</text>
            <text x="417" xml:space="preserve" font-size="12px" y="103" clip-path="url(#clipPath39)" stroke="none">users</text>
            <rect x="370" y="70" clip-path="url(#clipPath40)" fill="none" width="120" rx="0" ry="0" height="40"/>
            <rect x="370" y="150" clip-path="url(#clipPath41)" fill="url(#linearGradient11)" width="121" height="41" stroke="none"/>
            <text x="405" xml:space="preserve" font-size="12px" y="167" clip-path="url(#clipPath42)" stroke="none">«Module»</text>
            <text x="376" xml:space="preserve" font-size="12px" y="183" clip-path="url(#clipPath43)" stroke="none">actors.repository.jdo</text>
            <rect x="370" y="150" clip-path="url(#clipPath44)" fill="none" width="120" rx="0" ry="0" height="40"/>
            <rect x="370" y="210" clip-path="url(#clipPath45)" fill="url(#linearGradient12)" width="121" height="41" stroke="none"/>
            <text x="405" xml:space="preserve" font-size="12px" y="227" clip-path="url(#clipPath46)" stroke="none">«Module»</text>
            <text x="379" xml:space="preserve" font-size="12px" y="243" clip-path="url(#clipPath47)" stroke="none">users.repository.jdo</text>
            <rect x="370" y="210" clip-path="url(#clipPath48)" fill="none" width="120" rx="0" ry="0" height="40"/>
            <line clip-path="url(#clipPath49)" fill="none" text-rendering="optimizeLegibility" x1="110" x2="150" y1="230" y2="230" stroke-dasharray="5,5,5,5,5,5,5,5,5,5"/>
            <line clip-path="url(#clipPath49)" fill="none" text-rendering="optimizeLegibility" x1="150" x2="190" y1="230" y2="230" stroke-dasharray="5,5,5,5,5,5,5,5,5,5"/>
            <line clip-path="url(#clipPath50)" fill="none" text-rendering="optimizeLegibility" x1="175" x2="190" y1="235" y2="230"/>
            <line clip-path="url(#clipPath50)" fill="none" text-rendering="optimizeLegibility" x1="190" x2="175" y1="230" y2="225"/>
            <line clip-path="url(#clipPath49)" fill="none" text-rendering="optimizeLegibility" x1="110" x2="150" y1="230" y2="230" stroke-dasharray="5,5,5,5,5,5,5,5,5,5"/>
            <line clip-path="url(#clipPath49)" fill="none" text-rendering="optimizeLegibility" x1="150" x2="150" y1="230" y2="90" stroke-dasharray="5,5,5,5,5,5,5,5,5,5"/>
            <line clip-path="url(#clipPath49)" fill="none" text-rendering="optimizeLegibility" x1="150" x2="190" y1="90" y2="90" stroke-dasharray="5,5,5,5,5,5,5,5,5,5"/>
            <line clip-path="url(#clipPath51)" fill="none" text-rendering="optimizeLegibility" x1="175" x2="190" y1="95" y2="90"/>
            <line clip-path="url(#clipPath51)" fill="none" text-rendering="optimizeLegibility" x1="190" x2="175" y1="90" y2="85"/>
            <line clip-path="url(#clipPath49)" fill="none" text-rendering="optimizeLegibility" x1="110" x2="150" y1="230" y2="230" stroke-dasharray="5,5,5,5,5,5,5,5,5,5"/>
            <line clip-path="url(#clipPath49)" fill="none" text-rendering="optimizeLegibility" x1="150" x2="150" y1="230" y2="370" stroke-dasharray="5,5,5,5,5,5,5,5,5,5"/>
            <line clip-path="url(#clipPath49)" fill="none" text-rendering="optimizeLegibility" x1="150" x2="190" y1="370" y2="370" stroke-dasharray="5,5,5,5,5,5,5,5,5,5"/>
            <line clip-path="url(#clipPath52)" fill="none" text-rendering="optimizeLegibility" x1="175" x2="190" y1="375" y2="370"/>
            <line clip-path="url(#clipPath52)" fill="none" text-rendering="optimizeLegibility" x1="190" x2="175" y1="370" y2="365"/>
            <line clip-path="url(#clipPath49)" fill="none" text-rendering="optimizeLegibility" x1="290" x2="330" y1="370" y2="370" stroke-dasharray="5,5,5,5,5,5,5,5,5,5"/>
            <line clip-path="url(#clipPath49)" fill="none" text-rendering="optimizeLegibility" x1="330" x2="330" y1="370" y2="310" stroke-dasharray="5,5,5,5,5,5,5,5,5,5"/>
            <line clip-path="url(#clipPath49)" fill="none" text-rendering="optimizeLegibility" x1="330" x2="370" y1="310" y2="310" stroke-dasharray="5,5,5,5,5,5,5,5,5,5"/>
            <line clip-path="url(#clipPath53)" fill="none" text-rendering="optimizeLegibility" x1="355" x2="370" y1="315" y2="310"/>
            <line clip-path="url(#clipPath53)" fill="none" text-rendering="optimizeLegibility" x1="370" x2="355" y1="310" y2="305"/>
            <line clip-path="url(#clipPath49)" fill="none" text-rendering="optimizeLegibility" x1="290" x2="330" y1="370" y2="370" stroke-dasharray="5,5,5,5,5,5,5,5,5,5"/>
            <line clip-path="url(#clipPath49)" fill="none" text-rendering="optimizeLegibility" x1="330" x2="370" y1="370" y2="370" stroke-dasharray="5,5,5,5,5,5,5,5,5,5"/>
            <line clip-path="url(#clipPath54)" fill="none" text-rendering="optimizeLegibility" x1="355" x2="370" y1="375" y2="370"/>
            <line clip-path="url(#clipPath54)" fill="none" text-rendering="optimizeLegibility" x1="370" x2="355" y1="370" y2="365"/>
            <line clip-path="url(#clipPath49)" fill="none" text-rendering="optimizeLegibility" x1="290" x2="330" y1="370" y2="370" stroke-dasharray="5,5,5,5,5,5,5,5,5,5"/>
            <line clip-path="url(#clipPath49)" fill="none" text-rendering="optimizeLegibility" x1="330" x2="330" y1="370" y2="430" stroke-dasharray="5,5,5,5,5,5,5,5,5,5"/>
            <line clip-path="url(#clipPath49)" fill="none" text-rendering="optimizeLegibility" x1="330" x2="370" y1="430" y2="430" stroke-dasharray="5,5,5,5,5,5,5,5,5,5"/>
            <line clip-path="url(#clipPath55)" fill="none" text-rendering="optimizeLegibility" x1="355" x2="370" y1="435" y2="430"/>
            <line clip-path="url(#clipPath55)" fill="none" text-rendering="optimizeLegibility" x1="370" x2="355" y1="430" y2="425"/>
            <line clip-path="url(#clipPath49)" fill="none" text-rendering="optimizeLegibility" x1="290" x2="330" y1="370" y2="370" stroke-dasharray="5,5,5,5,5,5,5,5,5,5"/>
            <line clip-path="url(#clipPath49)" fill="none" text-rendering="optimizeLegibility" x1="330" x2="330" y1="370" y2="490" stroke-dasharray="5,5,5,5,5,5,5,5,5,5"/>
            <line clip-path="url(#clipPath49)" fill="none" text-rendering="optimizeLegibility" x1="330" x2="370" y1="490" y2="490" stroke-dasharray="5,5,5,5,5,5,5,5,5,5"/>
            <line clip-path="url(#clipPath56)" fill="none" text-rendering="optimizeLegibility" x1="355" x2="370" y1="495" y2="490"/>
            <line clip-path="url(#clipPath56)" fill="none" text-rendering="optimizeLegibility" x1="370" x2="355" y1="490" y2="485"/>
            <line clip-path="url(#clipPath49)" fill="none" text-rendering="optimizeLegibility" x1="290" x2="330" y1="230" y2="230" stroke-dasharray="5,5,5,5,5,5,5,5,5,5"/>
            <line clip-path="url(#clipPath49)" fill="none" text-rendering="optimizeLegibility" x1="330" x2="330" y1="230" y2="170" stroke-dasharray="5,5,5,5,5,5,5,5,5,5"/>
            <line clip-path="url(#clipPath49)" fill="none" text-rendering="optimizeLegibility" x1="330" x2="370" y1="170" y2="170" stroke-dasharray="5,5,5,5,5,5,5,5,5,5"/>
            <line clip-path="url(#clipPath57)" fill="none" text-rendering="optimizeLegibility" x1="355" x2="370" y1="175" y2="170"/>
            <line clip-path="url(#clipPath57)" fill="none" text-rendering="optimizeLegibility" x1="370" x2="355" y1="170" y2="165"/>
            <line clip-path="url(#clipPath49)" fill="none" text-rendering="optimizeLegibility" x1="290" x2="331" y1="230" y2="230" stroke-dasharray="5,5,5,5,5,5,5,5,5,5"/>
            <line clip-path="url(#clipPath49)" fill="none" text-rendering="optimizeLegibility" x1="331" x2="370" y1="230" y2="230" stroke-dasharray="5,5,5,5,5,5,5,5,5,5"/>
            <line clip-path="url(#clipPath58)" fill="none" text-rendering="optimizeLegibility" x1="355" x2="370" y1="235" y2="230"/>
            <line clip-path="url(#clipPath58)" fill="none" text-rendering="optimizeLegibility" x1="370" x2="355" y1="230" y2="225"/>
            <line clip-path="url(#clipPath49)" fill="none" text-rendering="optimizeLegibility" x1="290" x2="328" y1="90" y2="90" stroke-dasharray="5,5,5,5,5,5,5,5,5,5"/>
            <line clip-path="url(#clipPath49)" fill="none" text-rendering="optimizeLegibility" x1="328" x2="328" y1="90" y2="30" stroke-dasharray="5,5,5,5,5,5,5,5,5,5"/>
            <line clip-path="url(#clipPath49)" fill="none" text-rendering="optimizeLegibility" x1="328" x2="370" y1="30" y2="30" stroke-dasharray="5,5,5,5,5,5,5,5,5,5"/>
            <line clip-path="url(#clipPath59)" fill="none" text-rendering="optimizeLegibility" x1="355" x2="370" y1="35" y2="30"/>
            <line clip-path="url(#clipPath59)" fill="none" text-rendering="optimizeLegibility" x1="370" x2="355" y1="30" y2="25"/>
            <line clip-path="url(#clipPath49)" fill="none" text-rendering="optimizeLegibility" x1="290" x2="330" y1="90" y2="90" stroke-dasharray="5,5,5,5,5,5,5,5,5,5"/>
            <line clip-path="url(#clipPath49)" fill="none" text-rendering="optimizeLegibility" x1="330" x2="370" y1="90" y2="90" stroke-dasharray="5,5,5,5,5,5,5,5,5,5"/>
            <line clip-path="url(#clipPath60)" fill="none" text-rendering="optimizeLegibility" x1="355" x2="370" y1="95" y2="90"/>
            <line clip-path="url(#clipPath60)" fill="none" text-rendering="optimizeLegibility" x1="370" x2="355" y1="90" y2="85"/>
        </g>
    </g>
</svg>
